<?xml version="1.0" encoding="iso-8859-1"?>
<!-- Generator: Adobe Illustrator 23.0.3, SVG Export Plug-In . SVG Version: 6.00 Build 0)  -->
<svg version="1.1" id="Layer_4" xmlns="http://www.w3.org/2000/svg" xmlns:xlink="http://www.w3.org/1999/xlink" x="0px" y="0px"
	 width="437.724" height="239.59" viewBox="0 0 437.724 239.59" style="enable-background:new 0 0 437.724 239.59;" xml:space="preserve">
<g>
	<g style="enable-background:new    ;">
		<path style="fill:#FF3369;" d="M8.802,2.443h7.094l8.801,28.074h-5.842l-1.783-5.881h-9.56l-1.745,5.881H0L8.802,2.443z
			 M15.744,19.592l-3.452-12.33l-3.453,12.33H15.744z"/>
	</g>
	<g style="enable-background:new    ;">
		<path style="fill:#FF3369;" d="M1.783,49.746h11.04c5.336,0,8.005,2.454,8.005,7.36c0,1.669-0.341,3.029-1.024,4.078
			c-0.683,1.05-1.645,1.739-2.883,2.067c1.366,0.329,2.51,1.062,3.433,2.2c0.923,1.139,1.385,2.682,1.385,4.629
			c0,2.782-0.702,4.768-2.105,5.956c-1.404,1.189-3.509,1.783-6.317,1.783H1.783V49.746z M12.861,61.317
			c0.809,0,1.448-0.304,1.916-0.91c0.468-0.607,0.702-1.417,0.702-2.429c0-1.112-0.247-1.922-0.74-2.428s-1.145-0.759-1.954-0.759
			H7.398v6.525H12.861z M13.165,72.774c2.149,0,3.225-1.227,3.225-3.68c0-1.062-0.298-1.903-0.892-2.523
			c-0.595-0.619-1.372-0.929-2.333-0.929H7.398v7.132H13.165z"/>
	</g>
	<g style="enable-background:new    ;">
		<path style="fill:#FF3369;" d="M423.27,56.175c-1.645-0.177-3.035-0.404-4.173-0.683v-4.438c2.251,0.228,5.096,0.341,8.536,0.341
			c1.542,0,2.706-0.208,3.49-0.626c0.783-0.417,1.176-1.157,1.176-2.219v-1.024c0-0.835-0.246-1.474-0.739-1.916
			s-1.195-0.664-2.105-0.664h-2.391c-2.782,0-4.862-0.607-6.24-1.821c-1.379-1.214-2.068-3.199-2.068-5.956v-1.365
			c0-5.261,3.022-7.892,9.067-7.892c1.416,0,2.884,0.095,4.4,0.284c1.518,0.19,2.884,0.412,4.098,0.664v4.439
			c-3.465-0.229-6.083-0.342-7.854-0.342c-1.441,0-2.529,0.222-3.262,0.664c-0.734,0.442-1.101,1.258-1.101,2.446v0.759
			c0,0.962,0.271,1.664,0.815,2.106s1.372,0.663,2.485,0.663h2.77c2.428,0,4.28,0.664,5.558,1.992
			c1.276,1.328,1.916,3.067,1.916,5.217v1.593c0,2.125-0.393,3.775-1.177,4.951s-1.884,1.985-3.3,2.428
			c-1.417,0.442-3.175,0.664-5.273,0.664C426.458,56.44,424.914,56.352,423.27,56.175z"/>
	</g>
	<g style="enable-background:new    ;">
		<path style="fill:#FF3369;" d="M423.195,215.016c-1.442-0.746-2.549-2.162-3.32-4.249s-1.157-5.077-1.157-8.973
			c0-3.742,0.398-6.651,1.195-8.726c0.797-2.073,1.929-3.509,3.396-4.306s3.351-1.195,5.652-1.195c1.72,0,3.339,0.133,4.856,0.398
			s2.82,0.576,3.907,0.93v4.362c-0.758-0.176-1.834-0.328-3.225-0.455c-1.391-0.126-2.845-0.189-4.362-0.189
			s-2.682,0.234-3.49,0.702c-0.81,0.468-1.398,1.354-1.765,2.655c-0.366,1.303-0.55,3.257-0.55,5.861
			c0,2.58,0.164,4.515,0.493,5.805c0.328,1.29,0.897,2.188,1.707,2.693c0.81,0.507,2.011,0.759,3.604,0.759
			c3.085,0,5.614-0.126,7.587-0.379v4.324c-2.251,0.734-5.197,1.101-8.839,1.101C426.533,216.135,424.636,215.762,423.195,215.016z"
			/>
	</g>
	<g>
		<path d="M302.089,239.59h-74.954c-2.413,0-4.376-1.963-4.376-4.376v-64.221c0-2.413,1.963-4.376,4.376-4.376h74.954
			c20.118,0,36.486,16.368,36.486,36.486S322.208,239.59,302.089,239.59z M227.759,234.59h74.33
			c17.361,0,31.486-14.125,31.486-31.486s-14.125-31.486-31.486-31.486h-74.33V234.59z"/>
	</g>
	<g>
		<path d="M224.333,183.917h-75.167c-1.381,0-2.5-1.119-2.5-2.5V80.931c0-0.664,0.264-1.3,0.733-1.769
			c0.469-0.468,1.104-0.731,1.767-0.731c0.001,0,0.002,0,0.003,0l0.71,0.001c5.917,0,10.733-4.816,10.733-10.737
			s-4.816-10.737-10.737-10.737l-0.715-0.001c-1.378-0.003-2.495-1.121-2.495-2.5V23.512c0-1.381,1.119-2.5,2.5-2.5
			s2.5,1.119,2.5,2.5v28.547c7.835,0.89,13.947,7.562,13.947,15.636c0,8.072-6.109,14.744-13.947,15.636v95.586h72.667
			c1.381,0,2.5,1.119,2.5,2.5S225.713,183.917,224.333,183.917z"/>
	</g>
	<g>
		<circle cx="149.165" cy="23.225" r="9.946"/>
	</g>
	<g>
		<circle cx="92.227" cy="66.932" r="9.946"/>
	</g>
	<g>
		<path d="M403.526,205.521h-65.973c-1.381,0-2.5-1.119-2.5-2.5s1.119-2.5,2.5-2.5h65.973c1.381,0,2.5,1.119,2.5,2.5
			S404.907,205.521,403.526,205.521z"/>
	</g>
	<g>
		<path d="M245.724,24.399H39.09c-1.381,0-2.5-1.119-2.5-2.5s1.119-2.5,2.5-2.5h206.634c1.381,0,2.5,1.119,2.5,2.5
			S247.105,24.399,245.724,24.399z"/>
	</g>
	<g>
		<path d="M245.724,69.432H39.09c-1.381,0-2.5-1.119-2.5-2.5s1.119-2.5,2.5-2.5h206.634c1.381,0,2.5,1.119,2.5,2.5
			S247.105,69.432,245.724,69.432z"/>
	</g>
	<g>
		<path d="M224.333,228.534H92.227c-1.381,0-2.5-1.119-2.5-2.5V66.932c0-1.381,1.119-2.5,2.5-2.5s2.5,1.119,2.5,2.5v156.603h129.605
			c1.381,0,2.5,1.119,2.5,2.5S225.713,228.534,224.333,228.534z"/>
	</g>
	<g>
		<path d="M276.359,87.656H234.64c-0.982,0-1.874-0.576-2.278-1.472c-0.404-0.896-0.247-1.945,0.403-2.682
			c9.481-10.75,14.703-24.817,14.703-39.611v-0.126c0-14.795-5.222-28.862-14.703-39.611c-0.65-0.737-0.808-1.787-0.403-2.682
			C232.766,0.576,233.658,0,234.64,0h41.719c27.291,0,52.445,16.802,64.086,42.806c0.29,0.65,0.29,1.393,0,2.043
			C328.805,70.853,303.65,87.656,276.359,87.656z M239.874,82.656h36.485c24.965,0,48.025-15.204,59.055-38.828
			C324.383,20.204,301.323,5,276.359,5h-36.485c8.155,11.018,12.595,24.589,12.595,38.765v0.126
			C252.468,58.065,248.029,71.637,239.874,82.656z"/>
	</g>
	<g>
		<path d="M211.488,87.657c-0.587,0-1.177-0.206-1.653-0.625c-1.035-0.914-1.134-2.493-0.221-3.529
			c9.481-10.75,14.703-24.817,14.703-39.611v-0.127c0-14.795-5.222-28.862-14.703-39.611c-0.913-1.036-0.814-2.615,0.221-3.529
			c1.036-0.912,2.616-0.813,3.529,0.221c10.287,11.663,15.953,26.904,15.953,42.918v0.127c0,16.013-5.666,31.255-15.953,42.919
			C212.87,87.371,212.18,87.657,211.488,87.657z"/>
	</g>
	<g>
		<path d="M397.504,46.328h-59.342c-1.381,0-2.5-1.119-2.5-2.5s1.119-2.5,2.5-2.5h59.342c1.381,0,2.5,1.119,2.5,2.5
			S398.885,46.328,397.504,46.328z"/>
	</g>
</g>
</svg>
