<?xml version="1.0" encoding="iso-8859-1"?>
<!-- Generator: Adobe Illustrator 23.0.3, SVG Export Plug-In . SVG Version: 6.00 Build 0)  -->
<svg version="1.1" id="Layer_4" xmlns="http://www.w3.org/2000/svg" xmlns:xlink="http://www.w3.org/1999/xlink" x="0px" y="0px"
	 width="405.32" height="102.542" viewBox="0 0 405.32 102.542" style="enable-background:new 0 0 405.32 102.542;" xml:space="preserve">
<g>
	<g>
		<path d="M332.589,66.075c-7.69,0-13.946-6.256-13.946-13.946s6.256-13.947,13.946-13.947s13.947,6.257,13.947,13.947
			S340.279,66.075,332.589,66.075z M332.589,46.181c-3.278,0-5.946,2.668-5.946,5.947c0,3.278,2.668,5.946,5.946,5.946
			c3.279,0,5.947-2.668,5.947-5.946C338.536,48.849,335.868,46.181,332.589,46.181z"/>
	</g>
	<g>
		<path d="M241.908,102.542c-0.69,0-1.381-0.179-2-0.536c-1.237-0.714-2-2.035-2-3.464V5.713c0-1.429,0.763-2.75,2-3.464
			c1.238-0.715,2.762-0.715,4,0l80.393,46.416c1.237,0.714,2,2.035,2,3.464c0,1.429-0.763,2.75-2,3.464l-80.393,46.413
			C243.289,102.363,242.599,102.542,241.908,102.542z M245.908,12.641v78.973l68.393-39.485L245.908,12.641z"/>
	</g>
	<g>
		<path d="M401.32,54.881h-57.542c-2.209,0-4-1.791-4-4c0-2.209,1.791-4,4-4h57.542c2.209,0,4,1.791,4,4
			C405.32,53.09,403.529,54.881,401.32,54.881z"/>
	</g>
	<g>
		<path d="M83.384,31.047H4c-2.209,0-4-1.791-4-4s1.791-4,4-4h79.384c2.209,0,4,1.791,4,4S85.593,31.047,83.384,31.047z"/>
	</g>
	<g>
		<path d="M83.384,77.642H4c-2.209,0-4-1.791-4-4s1.791-4,4-4h79.384c2.209,0,4,1.791,4,4S85.593,77.642,83.384,77.642z"/>
	</g>
	<g>
		<path d="M117.911,100.83H71.058c-1.572,0-2.999-0.921-3.646-2.354c-0.646-1.434-0.394-3.112,0.646-4.292
			c10.456-11.853,16.214-27.371,16.214-43.696v-0.144c0-16.325-5.758-31.843-16.214-43.697c-1.041-1.179-1.293-2.858-0.646-4.292
			C68.059,0.921,69.486,0,71.058,0h46.853c31.118,0,59.797,19.147,73.062,48.781c0.465,1.04,0.465,2.229,0,3.269
			C177.708,81.682,149.03,100.83,117.911,100.83z M79.254,92.83h38.657c26.966,0,52.866-16.972,65.005-42.415
			C170.776,24.972,144.877,8,117.911,8H79.254c8.443,12.223,13.019,26.972,13.019,42.343v0.144
			C92.273,65.858,87.697,80.607,79.254,92.83z"/>
	</g>
	<g>
		<path d="M45.057,100.831c-0.94,0-1.884-0.329-2.645-1c-1.657-1.462-1.815-3.989-0.354-5.646
			c10.456-11.853,16.214-27.371,16.214-43.696v-0.143c0-16.325-5.758-31.844-16.214-43.697c-1.461-1.657-1.303-4.184,0.354-5.646
			c1.656-1.462,4.185-1.303,5.646,0.354C59.804,14.672,66.273,32.07,66.273,50.345v0.143c0,18.275-6.469,35.674-18.215,48.989
			C47.267,100.373,46.165,100.831,45.057,100.831z"/>
	</g>
	<g>
		<path d="M241.505,54.417h-53.802c-2.209,0-4-1.791-4-4c0-2.209,1.791-4,4-4h53.802c2.209,0,4,1.791,4,4
			C245.505,52.625,243.714,54.417,241.505,54.417z"/>
	</g>
</g>
</svg>
