<svg xmlns="http://www.w3.org/2000/svg" width="700" height="350" viewBox="0 0 700 350">
  <defs>
    <style>
      .a {
        fill: #eeefed;
      }

      .b, .c {
        stroke: #000;
        stroke-linecap: round;
        stroke-miterlimit: 10;
        stroke-width: 4px;
      }

      .c {
        fill: none;
      }
    </style>
  </defs>
  <rect class="a" x="17.5" y="17.5" width="665" height="315" rx="33.566"/>
  <line class="b" x1="232.9346" y1="174.9993" x2="107.3899" y2="174.9993"/>
  <circle cx="232.9339" cy="175" r="6.5275"/>
  <polyline class="c" points="258.134 103.714 233.461 103.714 233.461 246.28 258.324 246.28"/>
  <line class="b" x1="386.1517" y1="90.1765" x2="346.4128" y2="90.1765"/>
  <line class="b" x1="385.9472" y1="259.8243" x2="346.4129" y2="259.8243"/>
  <polyline class="c" points="259.886 76.639 155.28 76.639 155.28 164.118"/>
  <polyline class="c" points="177.386 273.369 155.279 273.369 155.279 185.876"/>
  <line class="b" x1="551.0388" y1="246.2834" x2="473.0613" y2="246.2834"/>
  <line class="b" x1="551.0388" y1="103.7176" x2="473.0613" y2="103.7176"/>
  <polyline class="c" points="501.188 246.283 501.188 214.227 358.798 131.966 358.798 117.995 358.798 117.258 386.152 117.258"/>
  <path class="c" d="M311.4824,285.3914c11.0332,0,21.7979-11.1663,22.0175-25.0463.227-14.346-11.0834-26.0888-22.435-26.0888H262.8458c-1.6345,0-2.9594,1.6748-2.9594,3.7408v43.5745c0,2.066,1.3249,3.82,2.9594,3.82Z"/>
  <path class="c" d="M311.4824,115.7437c11.0332,0,21.7979-11.1664,22.0175-25.0464.227-14.3459-11.0834-26.0888-22.435-26.0888H262.8458c-1.6345,0-2.9594,1.6748-2.9594,3.7408v43.5745c0,2.066,1.3249,3.82,2.9594,3.82Z"/>
  <path class="c" d="M438.131,129.2846c11.0332,0,21.7979-11.1663,22.0175-25.0463.2269-14.346-11.0835-26.0888-22.4351-26.0888H389.4943c-1.6344,0-2.9593,1.6748-2.9593,3.7408v43.5745c0,2.066,1.3249,3.82,2.9593,3.82Z"/>
  <path class="c" d="M438.131,271.85c11.0332,0,21.7979-11.1664,22.0175-25.0463.2269-14.346-11.0835-26.0888-22.4351-26.0888H389.4943c-1.6344,0-2.9593,1.6748-2.9593,3.7408v43.5745c0,2.066,1.3249,3.82,2.9593,3.82Z"/>
  <circle class="c" cx="339.9582" cy="259.8239" r="6.4547"/>
  <circle class="c" cx="339.9582" cy="90.1761" r="6.4547"/>
  <circle class="c" cx="466.6067" cy="246.2829" r="6.4547"/>
  <circle class="c" cx="466.6067" cy="103.7176" r="6.4547"/>
  <circle cx="501.1882" cy="246.2834" r="6.5275"/>
  <circle cx="501.1882" cy="103.7176" r="6.5275"/>
  <path d="M563.36,91.9751q2.1151-2.4917,7.5195-2.4912t7.5049,2.4912q2.0991,2.49,2.1,9.1641t-2.1,9.164q-2.1006,2.49-7.5049,2.49t-7.5195-2.49q-2.1168-2.49-2.1163-9.164T563.36,91.9751Zm10.9873,3.1084q-.9288-1.5937-3.4678-1.5947t-3.4668,1.5947q-.9273,1.5953-.9277,6.0557t.9277,6.0546q.9287,1.5968,3.4668,1.5958,2.54,0,3.4678-1.5958.9271-1.5937.9277-6.0546T574.3477,95.0835Zm-6.2666,21.0635,1.1718-2.6367a53.1673,53.1673,0,0,0,9.7666,2.2138l-1.4,4.4263A34.4635,34.4635,0,0,1,568.0811,116.147Z"/>
  <path d="M78.9717,86.7358V64.2729q4.6215-.293,8.7246-.2929,5.3715,0,7.4717,2.4736,2.0991,2.4756,2.1,9.0508t-2.1,9.05q-2.1006,2.4756-7.4717,2.4746Q83.5947,87.0288,78.9717,86.7358Zm4.9482-18.85V83.0894q.5523,0,1.8067.0166,1.2523.0161,1.97.0166a3.6315,3.6315,0,0,0,3.4346-1.5957q.9271-1.5953.9277-6.0225t-.9277-6.0391a3.6189,3.6189,0,0,0-3.4346-1.6113Z"/>
  <g>
    <path d="M580.94,232.335v20.6718a1.5685,1.5685,0,0,1-1.7579,1.7911h-3.0927a1.8187,1.8187,0,0,1-1.1719-.3418,3.3617,3.3617,0,0,1-.8135-1.1231l-5.8926-11.9805a20.6637,20.6637,0,0,1-1.3671-3.4834h-.3584a26.0459,26.0459,0,0,1,.2275,3.5811v13.3477h-4.72V234.125a1.5821,1.5821,0,0,1,1.79-1.79h3.0273a1.8171,1.8171,0,0,1,1.1729.3418,3.3772,3.3772,0,0,1,.8135,1.123l5.6972,11.6221q.813,1.6289,1.628,3.6133h.3252q-.1949-2.5386-.1953-3.7764V232.335Z"/>
    <path d="M586.8486,234.4023q2.1006-2.4917,7.5039-2.4912t7.5205,2.4912q2.1153,2.49,2.1163,9.1641t-2.1163,9.1641q-2.1167,2.49-7.5205,2.49t-7.5039-2.49q-2.0991-2.49-2.1-9.1641T586.8486,234.4023Zm10.9707,3.1084q-.9272-1.5937-3.4668-1.5947t-3.4668,1.5947q-.9287,1.5952-.9277,6.0557t.9277,6.0547q.9273,1.5966,3.4668,1.5957t3.4668-1.5957q.9288-1.5937.9287-6.0547T597.8193,237.5107Z"/>
    <path d="M624.2383,236.3711h-6.7061v18.4268h-4.9814V236.3711h-6.7061V232.335h18.3936Z"/>
    <path d="M634.8193,234.4023q2.1153-2.4917,7.52-2.4912t7.5049,2.4912q2.0991,2.49,2.1,9.1641t-2.1,9.1641q-2.1006,2.49-7.5049,2.49t-7.52-2.49q-2.1167-2.49-2.1162-9.1641T634.8193,234.4023Zm10.9873,3.1084q-.9286-1.5937-3.4677-1.5947t-3.4668,1.5947q-.9273,1.5952-.9278,6.0557t.9278,6.0547q.9287,1.5966,3.4668,1.5957,2.54,0,3.4677-1.5957.9273-1.5937.9278-6.0547T645.8066,237.5107ZM639.54,258.5742l1.1719-2.6367a53.1748,53.1748,0,0,0,9.7666,2.2139l-1.4,4.4267A34.4821,34.4821,0,0,1,639.54,258.5742Z"/>
  </g>
  <g>
    <path d="M67.6406,179.3877l.4239,3.6787a24.5071,24.5071,0,0,1-7.1954.9111q-5.2089,0-7.3242-2.6045t-2.1162-9.0175q0-6.4131,2.1162-9.0176t7.3242-2.6045a27.5973,27.5973,0,0,1,6.7393.748l-.4229,3.712q-2.6367-.1626-6.3164-.1631a3.5215,3.5215,0,0,0-3.3369,1.5468q-.8951,1.5455-.8945,5.7784t.8945,5.7783a3.5215,3.5215,0,0,0,3.3369,1.5469A57.1267,57.1267,0,0,0,67.6406,179.3877Z"/>
    <path d="M75.7793,160.7979v17.5478q0,1.6275,1.8232,1.6279h1.3028l.5527,3.3526a8.6055,8.6055,0,0,1-3.8408.6513,4.7667,4.7667,0,0,1-3.3858-1.1552,4.2575,4.2575,0,0,1-1.2373-3.2725V160.7979Z"/>
    <path d="M87.7275,176.1318h-1.53a16.3548,16.3548,0,0,1,.2275,2.4092v5.0459H81.6074v-22.789h4.8174v9.4091a17.5187,17.5187,0,0,1-.2275,2.93h1.497l3.9727-5.6H97.07l-4.167,5.5674a4.7627,4.7627,0,0,1-1.4971,1.5293v.0654a5.2109,5.2109,0,0,1,1.4971,1.7256l4.7207,7.1621H92.22Z"/>
  </g>
  <g>
    <polyline class="c" points="420.742 182.087 358.798 218.035 358.798 232.005 358.798 232.742 386.152 232.742"/>
    <polyline class="c" points="501.188 103.718 501.188 135.774 442.903 168.028"/>
    <path class="c" d="M420.7421,182.0871a14.38,14.38,0,0,1,4.6132-18.8477,12.302,12.302,0,0,1,17.5475,4.7883"/>
  </g>
  <path class="c" d="M155.2794,164.118c-7.0585,0-12.7806,4.8708-12.7806,10.8791s5.7221,10.8791,12.7806,10.8791"/>
  <path class="c" d="M178.8691,253.8476l36.7689,19.0309a.5517.5517,0,0,1,0,.98L178.8691,292.89a.5517.5517,0,0,1-.8053-.49v-38.062A.5517.5517,0,0,1,178.8691,253.8476Z"/>
  <circle class="c" cx="222.3909" cy="273.3685" r="6.4547"/>
  <line class="b" x1="259.8861" y1="273.3688" x2="228.8455" y2="273.3688"/>
  <line class="b" x1="167.8067" y1="76.6391" x2="107.3901" y2="76.6391"/>
  <circle cx="155.2796" cy="76.6394" r="6.5275"/>
</svg>
