<?xml version="1.0" encoding="iso-8859-1"?>
<!-- Generator: Adobe Illustrator 23.0.3, SVG Export Plug-In . SVG Version: 6.00 Build 0)  -->
<svg version="1.1" id="Layer_4" xmlns="http://www.w3.org/2000/svg" xmlns:xlink="http://www.w3.org/1999/xlink" x="0px" y="0px"
	 width="371" height="373.666" viewBox="0 0 444.914 448.419" style="enable-background:new 0 0 444.914 448.419;" xml:space="preserve">
<g>
	<path style="fill:#FF3369;" d="M31.497,201.109c-1.139-0.59-2.014-1.71-2.625-3.36c-0.609-1.649-0.914-4.015-0.914-7.095
		c0-2.96,0.314-5.26,0.945-6.899c0.629-1.64,1.525-2.775,2.686-3.405c1.158-0.63,2.648-0.945,4.469-0.945
		c1.359,0,2.641,0.105,3.84,0.315c1.201,0.21,2.23,0.455,3.09,0.734v3.45c-0.6-0.14-1.449-0.26-2.549-0.359
		c-1.102-0.101-2.25-0.15-3.451-0.15c-1.199,0-2.119,0.186-2.76,0.555c-0.641,0.37-1.105,1.07-1.395,2.101
		c-0.291,1.03-0.436,2.575-0.436,4.635c0,2.04,0.131,3.57,0.391,4.59c0.26,1.021,0.709,1.73,1.35,2.13
		c0.641,0.4,1.59,0.601,2.85,0.601c2.441,0,4.441-0.101,6-0.301v3.42c-1.779,0.581-4.109,0.87-6.99,0.87
		C34.138,201.994,32.638,201.699,31.497,201.109z"/>
	<path style="fill:#FF3369;" d="M48.178,201.199c-1.061-0.51-1.835-1.359-2.325-2.55c-0.49-1.189-0.734-2.835-0.734-4.935
		c0-2.18,0.244-3.865,0.734-5.056c0.49-1.189,1.265-2.02,2.325-2.489c1.06-0.47,2.5-0.705,4.32-0.705c1.84,0,3.289,0.245,4.35,0.734
		c1.06,0.49,1.835,1.33,2.325,2.521c0.489,1.189,0.734,2.854,0.734,4.995c0,2.14-0.239,3.805-0.72,4.994
		c-0.479,1.19-1.25,2.03-2.31,2.521c-1.061,0.49-2.521,0.735-4.38,0.735C50.678,201.964,49.238,201.708,48.178,201.199z
		 M54.268,198.109c0.4-0.21,0.7-0.649,0.9-1.32c0.199-0.67,0.3-1.694,0.3-3.074c0-1.381-0.101-2.405-0.3-3.075
		c-0.2-0.67-0.5-1.11-0.9-1.32s-0.99-0.314-1.77-0.314c-0.761,0-1.341,0.104-1.74,0.314c-0.4,0.21-0.7,0.65-0.9,1.32
		s-0.3,1.694-0.3,3.075c0,1.38,0.1,2.404,0.3,3.074c0.2,0.671,0.5,1.11,0.9,1.32c0.399,0.21,0.979,0.315,1.74,0.315
		C53.278,198.424,53.868,198.319,54.268,198.109z"/>
	<path style="fill:#FF3369;" d="M64.003,200.704c-0.811-0.859-1.215-2.06-1.215-3.6v-11.4h4.439v10.08
		c0,0.86,0.195,1.455,0.585,1.785c0.391,0.33,0.976,0.495,1.755,0.495c0.56,0,1.135-0.105,1.726-0.315
		c0.59-0.21,1.114-0.494,1.575-0.854v-11.19h4.47v16.11h-3.69l-0.779-1.65c-1.86,1.221-3.681,1.83-5.461,1.83
		C65.948,201.994,64.813,201.564,64.003,200.704z"/>
	<path style="fill:#FF3369;" d="M83.787,201.274c-0.76-0.36-1.31-0.96-1.649-1.8c-0.341-0.84-0.49-1.97-0.45-3.391l0.149-6.81h-2.52
		v-2.85l2.67-0.721l0.6-4.5h3.511v4.5h3.779v3.57h-3.779v6.78c0,0.8,0.14,1.36,0.42,1.68c0.279,0.32,0.67,0.521,1.17,0.6l2.04,0.181
		v3.3h-2.91C85.558,201.814,84.547,201.634,83.787,201.274z"/>
</g>
<g>
	<path style="fill:#FF3369;" d="M375.777,201.109c-1.14-0.59-2.015-1.71-2.625-3.36c-0.61-1.649-0.915-4.015-0.915-7.095
		c0-2.96,0.315-5.26,0.945-6.899s1.525-2.775,2.686-3.405c1.159-0.63,2.649-0.945,4.47-0.945c1.359,0,2.64,0.105,3.84,0.315
		s2.229,0.455,3.09,0.734v3.45c-0.6-0.14-1.45-0.26-2.55-0.359c-1.101-0.101-2.25-0.15-3.45-0.15s-2.12,0.186-2.76,0.555
		c-0.641,0.37-1.105,1.07-1.396,2.101s-0.435,2.575-0.435,4.635c0,2.04,0.13,3.57,0.39,4.59c0.26,1.021,0.71,1.73,1.351,2.13
		c0.64,0.4,1.59,0.601,2.85,0.601c2.44,0,4.44-0.101,6-0.301v3.42c-1.78,0.581-4.11,0.87-6.99,0.87
		C378.417,201.994,376.917,201.699,375.777,201.109z"/>
	<path style="fill:#FF3369;" d="M390.252,183.169c-0.11-0.11-0.165-0.256-0.165-0.436v-2.939c0-0.421,0.21-0.631,0.63-0.631h3.42
		c0.18,0,0.319,0.061,0.42,0.181c0.1,0.12,0.15,0.27,0.15,0.45v2.939c0,0.4-0.19,0.6-0.57,0.6h-3.42
		C390.517,183.333,390.362,183.279,390.252,183.169z M390.177,185.704h4.44v16.11h-4.44V185.704z"/>
	<path style="fill:#FF3369;" d="M398.036,185.704h3.66l0.78,1.65c0.659-0.54,1.449-0.995,2.369-1.365s1.82-0.555,2.7-0.555
		c1.82,0,3.11,0.521,3.87,1.56c0.76,1.04,1.141,2.44,1.141,4.2v10.62h-4.44v-10.05c0-0.76-0.205-1.34-0.615-1.74
		c-0.41-0.399-0.975-0.6-1.694-0.6c-1.101,0-2.211,0.4-3.33,1.199v11.19h-4.44V185.704z"/>
</g>
<g>
	<path style="fill:#FF3369;" d="M241.95,401.164c-1.301-0.14-2.4-0.319-3.3-0.54v-3.51c1.779,0.18,4.029,0.271,6.75,0.271
		c1.22,0,2.14-0.165,2.76-0.495c0.619-0.33,0.93-0.915,0.93-1.755v-0.811c0-0.66-0.195-1.165-0.585-1.515s-0.945-0.525-1.665-0.525
		h-1.89c-2.2,0-3.846-0.479-4.936-1.439s-1.635-2.53-1.635-4.71v-1.08c0-4.16,2.39-6.24,7.17-6.24c1.12,0,2.28,0.075,3.48,0.225
		c1.2,0.15,2.279,0.325,3.239,0.525v3.51c-2.74-0.18-4.81-0.27-6.21-0.27c-1.14,0-2,0.175-2.579,0.524
		c-0.581,0.351-0.87,0.995-0.87,1.936v0.6c0,0.761,0.214,1.315,0.645,1.665c0.43,0.351,1.085,0.525,1.965,0.525h2.19
		c1.92,0,3.385,0.524,4.395,1.574c1.01,1.051,1.516,2.426,1.516,4.125v1.261c0,1.68-0.311,2.984-0.931,3.915
		c-0.62,0.93-1.49,1.57-2.609,1.92c-1.12,0.35-2.511,0.524-4.17,0.524C244.469,401.374,243.249,401.303,241.95,401.164z"/>
	<path style="fill:#FF3369;" d="M257.535,400.083c-0.811-0.859-1.215-2.06-1.215-3.6v-11.4h4.439v10.08
		c0,0.86,0.195,1.455,0.585,1.785c0.391,0.33,0.976,0.495,1.755,0.495c0.56,0,1.135-0.105,1.726-0.315
		c0.59-0.21,1.114-0.494,1.575-0.854v-11.19h4.47v16.11h-3.69l-0.779-1.65c-1.86,1.221-3.681,1.83-5.461,1.83
		C259.479,401.374,258.344,400.944,257.535,400.083z"/>
	<path style="fill:#FF3369;" d="M274.229,385.083h3.66l0.78,1.65c0.819-0.62,1.64-1.095,2.46-1.425
		c0.819-0.33,1.789-0.495,2.909-0.495c0.98,0,1.811,0.205,2.49,0.615s1.2,0.965,1.561,1.665c0.819-0.62,1.729-1.155,2.729-1.605
		s1.97-0.675,2.91-0.675c1.84,0,3.15,0.51,3.93,1.53c0.78,1.02,1.17,2.489,1.17,4.409v10.44h-4.439v-10.05
		c0-0.76-0.205-1.34-0.615-1.74c-0.41-0.399-0.975-0.6-1.695-0.6c-0.58,0-1.175,0.12-1.784,0.359c-0.61,0.24-1.166,0.54-1.665,0.9
		c0.079,0.521,0.12,0.91,0.12,1.17v9.96h-4.44v-10.05c0-0.76-0.205-1.34-0.615-1.74c-0.41-0.399-0.975-0.6-1.694-0.6
		c-1.101,0-2.211,0.4-3.33,1.199v11.19h-4.44V385.083z"/>
</g>
<g>
	<path style="fill:#FF3369;" d="M130.79,31.651h5.61l6.96,22.2h-4.62l-1.41-4.65h-7.56l-1.38,4.65h-4.561L130.79,31.651z
		 M136.281,45.211l-2.729-9.75l-2.73,9.75H136.281z"/>
</g>
<g>
	<path style="fill:#FF3369;" d="M244.689,31.651h8.73c4.22,0,6.33,1.94,6.33,5.82c0,1.32-0.271,2.396-0.811,3.225
		c-0.54,0.83-1.3,1.376-2.28,1.636c1.08,0.26,1.985,0.84,2.716,1.739c0.729,0.9,1.095,2.12,1.095,3.66c0,2.2-0.556,3.771-1.665,4.71
		c-1.11,0.94-2.775,1.41-4.995,1.41h-9.12V31.651z M253.449,40.801c0.641,0,1.145-0.24,1.516-0.72
		c0.369-0.48,0.555-1.12,0.555-1.921c0-0.88-0.195-1.52-0.585-1.92c-0.39-0.399-0.905-0.6-1.545-0.6h-4.26v5.16H253.449z
		 M253.689,49.861c1.7,0,2.55-0.97,2.55-2.91c0-0.84-0.235-1.504-0.705-1.994c-0.47-0.49-1.085-0.735-1.845-0.735h-4.56v5.64
		H253.689z"/>
</g>
<g>
	<rect x="107.2" y="113.24" style="fill:#FFB53F;" width="225.908" height="225.908"/>
	<path d="M333.108,342.148H107.2c-1.657,0-3-1.343-3-3V113.24c0-1.657,1.343-3,3-3h225.908c1.657,0,3,1.343,3,3v225.908
		C336.108,340.805,334.765,342.148,333.108,342.148z M110.2,336.148h219.908V116.24H110.2V336.148z"/>
</g>
<g>
	<g>
		<path d="M107.2,229.194H15.773c-1.657,0-3-1.343-3-3c0-1.657,1.343-3,3-3H107.2c1.657,0,3,1.343,3,3
			C110.2,227.851,108.856,229.194,107.2,229.194z"/>
	</g>
	<g>
		<g>
			<polygon points="18.217,244.418 18.217,207.97 0,226.192 			"/>
		</g>
	</g>
</g>
<g>
	<g>
		<path d="M441.914,229.194h-91.426c-1.657,0-3-1.343-3-3c0-1.657,1.343-3,3-3h91.426c1.657,0,3,1.343,3,3
			C444.914,227.851,443.572,229.194,441.914,229.194z"/>
	</g>
	<g>
		<g>
			<polygon points="352.932,244.418 352.932,207.97 334.715,226.192 			"/>
		</g>
	</g>
</g>
<g>
	<g>
		<path d="M220.154,435.646c-1.657,0-3-1.343-3-3v-91.427c0-1.657,1.343-3,3-3c1.657,0,3,1.343,3,3v91.427
			C223.154,434.303,221.811,435.646,220.154,435.646z"/>
	</g>
	<g>
		<g>
			<polygon points="238.378,430.202 201.93,430.202 220.152,448.419 			"/>
		</g>
	</g>
</g>
<g>
	<g>
		<g>
			<path d="M161.365,97.426c-1.657,0-3-1.343-3-3V3c0-1.657,1.343-3,3-3s3,1.343,3,3v91.426
				C164.365,96.083,163.021,97.426,161.365,97.426z"/>
		</g>
		<g>
			<g>
				<polygon points="179.589,91.983 143.141,91.983 161.363,110.2 				"/>
			</g>
		</g>
	</g>
	<g>
		<g>
			<path d="M278.943,97.426c-1.657,0-3-1.343-3-3V3c0-1.657,1.343-3,3-3s3,1.343,3,3v91.426
				C281.943,96.083,280.6,97.426,278.943,97.426z"/>
		</g>
		<g>
			<g>
				<polygon points="297.167,91.983 260.718,91.983 278.941,110.2 				"/>
			</g>
		</g>
	</g>
</g>
<g>
	<path d="M197.024,199.044l-3.93,0.51v-2.85l4.41-1.92h3.96v22.41h-4.44V199.044z"/>
	<path d="M219.329,216.924c-0.73-0.3-1.436-0.72-2.115-1.26l-0.72,1.53h-3.72v-22.89h4.44v7.89c0.7-0.38,1.45-0.7,2.25-0.96
		c0.799-0.26,1.539-0.39,2.221-0.39c1.379,0,2.484,0.285,3.314,0.855c0.83,0.57,1.436,1.47,1.814,2.7
		c0.381,1.23,0.57,2.865,0.57,4.905c0,2.72-0.449,4.745-1.35,6.075s-2.279,1.995-4.141,1.995
		C220.913,217.374,220.059,217.224,219.329,216.924z M222.24,212.694c0.469-0.7,0.705-1.9,0.705-3.6c0-1.3-0.121-2.295-0.361-2.985
		c-0.238-0.69-0.555-1.145-0.943-1.365c-0.391-0.22-0.855-0.33-1.396-0.33c-0.979,0-1.99,0.3-3.029,0.9v7.65
		c0.96,0.521,1.97,0.78,3.029,0.78C221.105,213.744,221.769,213.394,222.24,212.694z"/>
	<path d="M230.399,198.549c-0.11-0.11-0.165-0.255-0.165-0.435v-2.94c0-0.42,0.21-0.63,0.63-0.63h3.42c0.18,0,0.319,0.06,0.42,0.18
		c0.1,0.12,0.15,0.27,0.15,0.45v2.94c0,0.4-0.19,0.6-0.57,0.6h-3.42C230.663,198.714,230.508,198.659,230.399,198.549z
		 M230.324,201.084h4.44v16.11h-4.44V201.084z"/>
	<path d="M241.274,216.654c-0.76-0.36-1.31-0.96-1.649-1.8c-0.341-0.84-0.49-1.97-0.45-3.39l0.149-6.81h-2.52v-2.85l2.67-0.72
		l0.6-4.5h3.511v4.5h3.779v3.57h-3.779v6.78c0,0.8,0.14,1.36,0.42,1.68c0.279,0.32,0.67,0.521,1.17,0.6l2.04,0.18v3.3h-2.91
		C243.044,217.194,242.034,217.014,241.274,216.654z"/>
	<path d="M151.155,236.064c0-1.8,0.495-3.095,1.485-3.885c0.99-0.79,2.185-1.186,3.585-1.186c3.979,0,7.18,0.131,9.6,0.391v3.72
		h-8.37c-0.6,0-1.061,0.165-1.38,0.495s-0.48,0.755-0.48,1.275v3.81l8.79,0.24v3.51l-8.79,0.24v8.52h-4.44V236.064z"/>
	<path d="M169.29,252.084c-0.81-0.86-1.215-2.061-1.215-3.601v-11.399h4.44v10.08c0,0.859,0.195,1.454,0.585,1.784
		c0.39,0.33,0.975,0.495,1.755,0.495c0.56,0,1.135-0.104,1.725-0.314s1.115-0.495,1.575-0.855v-11.189h4.47v16.109h-3.69
		l-0.78-1.649c-1.86,1.22-3.68,1.83-5.46,1.83C171.235,253.375,170.1,252.944,169.29,252.084z"/>
	<path d="M187.23,251.979c-0.83-0.85-1.245-2.175-1.245-3.975v-17.7h4.44v17.04c0,0.86,0.13,1.475,0.39,1.845
		c0.26,0.37,0.69,0.596,1.29,0.675l1.23,0.181v3.21h-2.31C189.325,253.254,188.059,252.83,187.23,251.979z"/>
	<path d="M196.619,251.979c-0.83-0.85-1.245-2.175-1.245-3.975v-17.7h4.44v17.04c0,0.86,0.13,1.475,0.39,1.845
		c0.26,0.37,0.69,0.596,1.29,0.675l1.23,0.181v3.21h-2.31C198.714,253.254,197.449,252.83,196.619,251.979z"/>
	<path d="M212.939,252.279c-0.75-0.729-1.125-1.725-1.125-2.984v-1.44c0-1.279,0.445-2.3,1.335-3.06
		c0.89-0.76,2.215-1.141,3.975-1.141h4.11v-1.109c0-0.54-0.09-0.965-0.27-1.275c-0.18-0.31-0.521-0.54-1.02-0.69
		c-0.501-0.149-1.241-0.225-2.221-0.225h-4.83v-2.58c1.98-0.6,4.129-0.899,6.45-0.899c2.121,0,3.705,0.399,4.755,1.199
		c1.051,0.801,1.574,2.19,1.574,4.17v10.95h-3.51l-0.719-1.71c-0.221,0.221-0.611,0.48-1.17,0.78c-0.561,0.3-1.226,0.561-1.996,0.78
		s-1.555,0.33-2.355,0.33C214.683,253.375,213.689,253.009,212.939,252.279z M219.945,249.969c0.68-0.21,1.109-0.365,1.289-0.465
		v-3.75l-2.7,0.18c-1.521,0.12-2.28,0.78-2.28,1.98v0.659c0,1.141,0.66,1.71,1.98,1.71
		C218.694,250.284,219.264,250.179,219.945,249.969z"/>
	<path d="M229.949,251.484c-0.95-1.26-1.425-3.319-1.425-6.18c0-2.04,0.185-3.67,0.555-4.89s0.994-2.12,1.875-2.7
		c0.88-0.58,2.09-0.87,3.63-0.87c1.32,0,2.689,0.25,4.11,0.75v-7.29h4.47v22.89h-3.75l-0.72-1.529
		c-0.561,0.479-1.24,0.885-2.04,1.215c-0.801,0.33-1.591,0.495-2.37,0.495C232.343,253.375,230.898,252.744,229.949,251.484z
		 M238.694,248.904v-8.1c-0.521-0.2-0.985-0.354-1.396-0.465s-0.835-0.165-1.274-0.165c-0.78,0-1.386,0.135-1.815,0.404
		c-0.431,0.271-0.745,0.761-0.945,1.471s-0.3,1.725-0.3,3.045c0,1.26,0.095,2.225,0.285,2.895c0.189,0.671,0.49,1.141,0.9,1.41
		c0.409,0.271,0.975,0.405,1.694,0.405C236.803,249.804,237.753,249.504,238.694,248.904z"/>
	<path d="M247.439,251.484c-0.95-1.26-1.425-3.319-1.425-6.18c0-2.04,0.185-3.67,0.555-4.89s0.994-2.12,1.875-2.7
		c0.88-0.58,2.09-0.87,3.63-0.87c1.32,0,2.689,0.25,4.11,0.75v-7.29h4.47v22.89h-3.75l-0.72-1.529
		c-0.561,0.479-1.24,0.885-2.04,1.215c-0.801,0.33-1.591,0.495-2.37,0.495C249.833,253.375,248.388,252.744,247.439,251.484z
		 M256.184,248.904v-8.1c-0.521-0.2-0.985-0.354-1.396-0.465s-0.835-0.165-1.274-0.165c-0.78,0-1.386,0.135-1.815,0.404
		c-0.431,0.271-0.745,0.761-0.945,1.471s-0.3,1.725-0.3,3.045c0,1.26,0.095,2.225,0.285,2.895c0.189,0.671,0.49,1.141,0.9,1.41
		c0.409,0.271,0.975,0.405,1.694,0.405C254.293,249.804,255.244,249.504,256.184,248.904z"/>
	<path d="M266.473,252.625c-1.04-0.48-1.796-1.311-2.266-2.49s-0.704-2.84-0.704-4.98c0-2.199,0.22-3.895,0.659-5.085
		c0.44-1.189,1.165-2.024,2.176-2.505c1.009-0.479,2.435-0.72,4.274-0.72c1.64,0,2.93,0.16,3.87,0.479
		c0.939,0.32,1.625,0.881,2.055,1.681c0.431,0.8,0.646,1.93,0.646,3.39c0,1.56-0.445,2.67-1.335,3.33
		c-0.891,0.66-2.186,0.99-3.885,0.99h-4.051c0.04,0.86,0.17,1.525,0.391,1.995c0.22,0.47,0.609,0.81,1.17,1.02
		c0.56,0.21,1.38,0.315,2.46,0.315h4.71v2.609c-1.061,0.221-2.021,0.391-2.88,0.511c-0.86,0.119-1.86,0.18-3,0.18
		C268.943,253.344,267.512,253.104,266.473,252.625z M271.513,244.074c0.619,0,1.064-0.124,1.335-0.375
		c0.27-0.249,0.405-0.675,0.405-1.274c0-0.88-0.2-1.495-0.601-1.846c-0.4-0.35-1.08-0.524-2.04-0.524
		c-0.7,0-1.245,0.115-1.635,0.345c-0.39,0.23-0.675,0.636-0.855,1.215c-0.18,0.581-0.27,1.4-0.27,2.46H271.513z"/>
	<path d="M280.093,237.084h3.42l1.021,2.46c0.64-0.841,1.324-1.495,2.055-1.966c0.729-0.469,1.564-0.704,2.505-0.704
		c0.52,0,0.96,0.05,1.32,0.149v4.561c-1.04-0.101-1.671-0.15-1.891-0.15c-0.859,0-1.6,0.141-2.22,0.42
		c-0.62,0.28-1.21,0.72-1.77,1.32v10.02h-4.44V237.084z"/>
</g>
</svg>
