<?xml version="1.0" encoding="iso-8859-1"?>
<!-- Generator: Adobe Illustrator 23.0.3, SVG Export Plug-In . SVG Version: 6.00 Build 0)  -->
<svg version="1.1" id="Layer_4" xmlns="http://www.w3.org/2000/svg" xmlns:xlink="http://www.w3.org/1999/xlink" x="0px" y="0px"
	 width="581.666" height="223.8" viewBox="0 0 698.365 268.634" style="enable-background:new 0 0 698.365 268.634;" xml:space="preserve">
<g style="enable-background:new    ;">
	<path style="fill:#FF3369;" d="M520.187,62.502c-1.505-0.161-2.778-0.37-3.82-0.625v-4.063c2.061,0.209,4.666,0.312,7.814,0.312
		c1.412,0,2.478-0.19,3.195-0.572c0.718-0.383,1.077-1.06,1.077-2.032v-0.938c0-0.765-0.227-1.349-0.678-1.754
		s-1.094-0.608-1.928-0.608h-2.188c-2.548,0-4.452-0.556-5.714-1.667s-1.893-2.929-1.893-5.452v-1.25
		c0-4.816,2.767-7.225,8.301-7.225c1.297,0,2.64,0.087,4.028,0.261c1.39,0.174,2.64,0.377,3.751,0.607v4.063
		c-3.172-0.208-5.568-0.312-7.188-0.312c-1.32,0-2.316,0.203-2.987,0.608c-0.672,0.405-1.007,1.151-1.007,2.24v0.694
		c0,0.88,0.248,1.522,0.746,1.928s1.256,0.607,2.275,0.607h2.535c2.223,0,3.919,0.607,5.088,1.823s1.754,2.808,1.754,4.775v1.459
		c0,1.944-0.359,3.455-1.076,4.532c-0.719,1.076-1.726,1.817-3.021,2.223c-1.298,0.405-2.906,0.607-4.828,0.607
		C523.105,62.745,521.692,62.664,520.187,62.502z"/>
</g>
<g style="enable-background:new    ;">
	<path style="fill:#FF3369;" d="M630.779,226.04c-1.319-0.683-2.332-1.979-3.039-3.89c-0.706-1.91-1.059-4.647-1.059-8.214
		c0-3.426,0.365-6.089,1.094-7.988c0.729-1.897,1.766-3.212,3.108-3.941s3.067-1.094,5.175-1.094c1.574,0,3.057,0.121,4.445,0.364
		c1.39,0.243,2.582,0.527,3.578,0.851v3.994c-0.695-0.161-1.68-0.301-2.953-0.416c-1.273-0.116-2.604-0.174-3.994-0.174
		c-1.389,0-2.453,0.214-3.194,0.643s-1.28,1.238-1.615,2.431c-0.336,1.193-0.503,2.981-0.503,5.366c0,2.361,0.15,4.133,0.451,5.313
		s0.821,2.003,1.562,2.466c0.74,0.464,1.841,0.694,3.299,0.694c2.825,0,5.141-0.115,6.947-0.347v3.959
		c-2.062,0.672-4.759,1.007-8.093,1.007C633.835,227.064,632.099,226.724,630.779,226.04z"/>
	<path style="fill:#FF3369;" d="M650.089,226.145c-1.228-0.591-2.125-1.574-2.691-2.952c-0.568-1.377-0.852-3.282-0.852-5.713
		c0-2.523,0.283-4.475,0.852-5.853c0.566-1.377,1.464-2.338,2.691-2.883c1.227-0.543,2.895-0.815,5.002-0.815
		c2.129,0,3.808,0.283,5.035,0.851c1.227,0.567,2.124,1.54,2.691,2.917c0.567,1.378,0.852,3.306,0.852,5.783
		s-0.278,4.405-0.834,5.782c-0.556,1.378-1.447,2.351-2.674,2.918c-1.228,0.567-2.918,0.851-5.07,0.851
		C652.984,227.03,651.316,226.735,650.089,226.145z M657.14,222.567c0.463-0.243,0.811-0.752,1.041-1.528
		c0.232-0.775,0.348-1.962,0.348-3.56s-0.115-2.784-0.348-3.561c-0.23-0.775-0.578-1.284-1.041-1.527
		c-0.464-0.243-1.146-0.365-2.049-0.365c-0.881,0-1.553,0.122-2.016,0.365s-0.811,0.752-1.041,1.527
		c-0.232,0.776-0.348,1.963-0.348,3.561s0.115,2.784,0.348,3.56c0.23,0.776,0.578,1.285,1.041,1.528s1.135,0.364,2.016,0.364
		C655.994,222.932,656.676,222.811,657.14,222.567z"/>
	<path style="fill:#FF3369;" d="M668.41,225.571c-0.938-0.995-1.406-2.385-1.406-4.168v-13.197h5.14v11.67
		c0,0.995,0.226,1.684,0.677,2.066c0.452,0.382,1.129,0.572,2.032,0.572c0.647,0,1.313-0.121,1.997-0.364
		c0.683-0.243,1.291-0.573,1.823-0.99v-12.954h5.175v18.65h-4.271l-0.903-1.91c-2.153,1.412-4.261,2.118-6.321,2.118
		C670.662,227.064,669.347,226.567,668.41,225.571z"/>
	<path style="fill:#FF3369;" d="M691.314,226.231c-0.88-0.417-1.517-1.111-1.91-2.084s-0.567-2.28-0.521-3.925l0.173-7.884h-2.917
		v-3.299l3.091-0.834l0.695-5.209h4.062v5.209h4.377v4.133h-4.377v7.85c0,0.926,0.162,1.574,0.486,1.944
		c0.324,0.371,0.775,0.603,1.355,0.695l2.361,0.208v3.82h-3.369C693.363,226.856,692.194,226.648,691.314,226.231z"/>
</g>
<g style="enable-background:new    ;">
	<path style="fill:#FF3369;" d="M26.992,3.806h5.441l6.751,21.533h-4.481l-1.367-4.511h-7.333l-1.339,4.511h-4.423L26.992,3.806z
		 M32.317,16.958l-2.648-9.457l-2.648,9.457H32.317z"/>
</g>
<g style="enable-background:new    ;">
	<path style="fill:#FF3369;" d="M21.608,40.088h8.468c4.093,0,6.14,1.882,6.14,5.646c0,1.28-0.262,2.323-0.786,3.128
		c-0.523,0.805-1.261,1.334-2.211,1.586c1.048,0.252,1.925,0.814,2.633,1.688s1.062,2.057,1.062,3.55
		c0,2.135-0.539,3.657-1.615,4.569c-1.077,0.911-2.691,1.367-4.845,1.367h-8.846V40.088z M30.105,48.963
		c0.621,0,1.11-0.232,1.469-0.698c0.359-0.466,0.539-1.086,0.539-1.862c0-0.854-0.189-1.474-0.567-1.862
		c-0.378-0.388-0.878-0.582-1.499-0.582h-4.132v5.005H30.105z M30.338,57.751c1.649,0,2.474-0.94,2.474-2.822
		c0-0.815-0.229-1.46-0.684-1.936c-0.456-0.475-1.052-0.713-1.79-0.713h-4.423v5.471H30.338z"/>
</g>
<g style="enable-background:new    ;">
	<path style="fill:#FF3369;" d="M3.434,183.392c-1.106-0.572-1.955-1.659-2.546-3.26C0.295,178.532,0,176.238,0,173.25
		c0-2.87,0.305-5.102,0.917-6.692c0.611-1.59,1.479-2.691,2.604-3.303c1.125-0.611,2.57-0.916,4.335-0.916
		c1.319,0,2.561,0.102,3.725,0.305c1.164,0.204,2.163,0.441,2.998,0.713v3.347c-0.582-0.136-1.407-0.252-2.474-0.349
		c-1.067-0.098-2.183-0.146-3.346-0.146c-1.164,0-2.057,0.179-2.677,0.538c-0.621,0.359-1.072,1.038-1.353,2.037
		c-0.282,0.999-0.422,2.497-0.422,4.495c0,1.979,0.126,3.463,0.378,4.452s0.688,1.679,1.31,2.066
		c0.621,0.388,1.542,0.582,2.765,0.582c2.366,0,4.307-0.097,5.82-0.291v3.317c-1.727,0.562-3.987,0.844-6.78,0.844
		C5.994,184.25,4.539,183.964,3.434,183.392z"/>
	<path style="fill:#FF3369;" d="M17.474,165.99c-0.107-0.106-0.16-0.247-0.16-0.422v-2.852c0-0.407,0.204-0.611,0.611-0.611h3.317
		c0.175,0,0.31,0.059,0.408,0.175c0.097,0.116,0.146,0.262,0.146,0.437v2.852c0,0.389-0.185,0.582-0.553,0.582h-3.317
		C17.73,166.15,17.58,166.097,17.474,165.99z M17.401,168.449h4.307v15.626h-4.307V168.449z"/>
	<path style="fill:#FF3369;" d="M25.025,168.449h3.55l0.757,1.601c0.64-0.524,1.406-0.965,2.299-1.324
		c0.892-0.358,1.765-0.538,2.619-0.538c1.765,0,3.017,0.505,3.754,1.513c0.737,1.009,1.106,2.367,1.106,4.074v10.301h-4.307v-9.748
		c0-0.737-0.199-1.3-0.597-1.688c-0.398-0.388-0.946-0.582-1.644-0.582c-1.067,0-2.144,0.388-3.23,1.164v10.854h-4.307V168.449z"/>
</g>
<g>
	<path d="M251.947,268.634h-57.49c-2.172,0-3.939-1.767-3.939-3.938v-49.258c0-2.172,1.767-3.939,3.939-3.939h57.49
		c15.752,0,28.568,12.815,28.568,28.568C280.515,255.818,267.699,268.634,251.947,268.634z M195.518,263.634h56.429
		c12.996,0,23.568-10.572,23.568-23.567c0-12.996-10.573-23.568-23.568-23.568h-56.429V263.634z"/>
</g>
<g>
	<path d="M443.48,219.267h-57.49c-2.172,0-3.938-1.767-3.938-3.938v-49.259c0-2.172,1.767-3.939,3.938-3.939h57.49
		c15.753,0,28.568,12.815,28.568,28.568S459.233,219.267,443.48,219.267z M387.051,214.267h56.429
		c12.996,0,23.568-10.572,23.568-23.568s-10.572-23.568-23.568-23.568h-56.429V214.267z"/>
</g>
<g>
	<path d="M192.307,225.933h-57.654c-1.381,0-2.5-1.119-2.5-2.5V64.008c0-0.664,0.264-1.3,0.734-1.77
		c0.469-0.468,1.104-0.73,1.766-0.73c0.001,0,0.003,0,0.004,0l0.545,0.001c4.216,0,7.649-3.433,7.649-7.653
		c0-4.22-3.433-7.653-7.653-7.653l-0.549-0.001c-1.379-0.002-2.496-1.121-2.496-2.5V19.967c0-1.381,1.119-2.5,2.5-2.5
		s2.5,1.119,2.5,2.5v21.386c6.051,0.941,10.698,6.189,10.698,12.502c0,6.312-4.646,11.56-10.698,12.502v154.574h55.154
		c1.381,0,2.5,1.119,2.5,2.5S193.688,225.933,192.307,225.933z"/>
</g>
<g>
	<path d="M384.213,210.114h-88.696c-1.381,0-2.5-1.119-2.5-2.5v-19.497c-6.054-0.944-10.698-6.19-10.698-12.502
		c0-6.312,4.646-11.56,10.698-12.503V35.598c0-1.381,1.119-2.5,2.5-2.5s2.5,1.119,2.5,2.5v129.863c0,1.379-1.117,2.497-2.496,2.5
		l-0.545,0.001c-4.225,0-7.658,3.434-7.658,7.653s3.433,7.653,7.653,7.653l0.541-0.001c0.001,0,0.003,0,0.004,0
		c0.662,0,1.297,0.263,1.766,0.73c0.47,0.469,0.734,1.105,0.734,1.77v19.347h86.196c1.381,0,2.5,1.119,2.5,2.5
		S385.594,210.114,384.213,210.114z"/>
</g>
<g>
	<circle cx="134.653" cy="19.747" r="7.629"/>
</g>
<g>
	<circle cx="294.908" cy="35.598" r="7.629"/>
</g>
<g>
	<circle cx="337.46" cy="175.531" r="7.629"/>
</g>
<g>
	<circle cx="90.98" cy="53.271" r="7.629"/>
</g>
<g>
	<path d="M192.951,21.229H50.223c-1.381,0-2.5-1.119-2.5-2.5s1.119-2.5,2.5-2.5h142.728c1.381,0,2.5,1.119,2.5,2.5
		S194.332,21.229,192.951,21.229z"/>
</g>
<g>
	<path d="M191.97,55.771H50.223c-1.381,0-2.5-1.119-2.5-2.5s1.119-2.5,2.5-2.5H191.97c1.381,0,2.5,1.119,2.5,2.5
		S193.351,55.771,191.97,55.771z"/>
</g>
<g>
	<path d="M192.307,260.155H90.98c-1.381,0-2.5-1.119-2.5-2.5V53.271c0-1.381,1.119-2.5,2.5-2.5s2.5,1.119,2.5,2.5v201.884h98.827
		c1.381,0,2.5,1.119,2.5,2.5S193.688,260.155,192.307,260.155z"/>
</g>
<g>
	<path style="fill:none;stroke:#000000;stroke-width:5;stroke-linecap:round;stroke-linejoin:round;stroke-miterlimit:10;" d="
		M384.551,175.358"/>
</g>
<g>
	<path d="M504.443,54.944h-34.905c-1.381,0-2.5-1.119-2.5-2.5s1.119-2.5,2.5-2.5h34.905c1.381,0,2.5,1.119,2.5,2.5
		S505.824,54.944,504.443,54.944z"/>
</g>
<g>
	<path style="fill:none;stroke:#000000;stroke-width:5;stroke-linecap:round;stroke-linejoin:round;stroke-miterlimit:10;" d="
		M483.709,174.163"/>
</g>
<g>
	<path d="M395.193,38.075H269.17c-1.381,0-2.5-1.119-2.5-2.5s1.119-2.5,2.5-2.5h126.023c1.381,0,2.5,1.119,2.5,2.5
		S396.574,38.075,395.193,38.075z"/>
</g>
<g>
	<path d="M337.46,177.353c-1.381,0-2.5-1.119-2.5-2.5V70.116c0-1.381,1.119-2.5,2.5-2.5h56.966c1.381,0,2.5,1.119,2.5,2.5
		s-1.119,2.5-2.5,2.5H339.96v102.236C339.96,176.233,338.841,177.353,337.46,177.353z"/>
</g>
<g>
	<path d="M383.784,177.858h-240.62c-1.381,0-2.5-1.119-2.5-2.5c0-15.436-12.558-27.994-27.994-27.994s-27.994,12.559-27.994,27.994
		c0,1.381-1.119,2.5-2.5,2.5H50.521c-1.381,0-2.5-1.119-2.5-2.5s1.119-2.5,2.5-2.5H79.77c1.281-17.03,15.548-30.494,32.9-30.494
		s31.619,13.464,32.9,30.494h238.213c1.381,0,2.5,1.119,2.5,2.5S385.165,177.858,383.784,177.858z"/>
</g>
<g>
	<path d="M507.148,242.522h-228c-1.381,0-2.5-1.119-2.5-2.5s1.119-2.5,2.5-2.5h228c1.381,0,2.5,1.119,2.5,2.5
		S508.529,242.522,507.148,242.522z"/>
</g>
<g>
	<path d="M507.148,194.023h-36.985c-1.381,0-2.5-1.119-2.5-2.5s1.119-2.5,2.5-2.5h36.985c1.381,0,2.5,1.119,2.5,2.5
		S508.529,194.023,507.148,194.023z"/>
</g>
<g>
	<path d="M537.554,255.404h-37.098c-0.982,0-1.874-0.576-2.278-1.472s-0.247-1.945,0.403-2.683
		c8.387-9.507,13.006-21.95,13.006-35.038v-0.113c0-13.088-4.619-25.531-13.006-35.038c-0.65-0.737-0.808-1.787-0.403-2.683
		s1.296-1.472,2.278-1.472h37.098c24.375,0,46.843,15.005,57.238,38.228c0.29,0.65,0.29,1.393,0,2.043
		C584.397,240.399,561.929,255.404,537.554,255.404z M505.657,250.404h31.897c21.704,0,42.543-13.718,52.205-34.249
		c-9.662-20.531-30.501-34.249-52.205-34.249h-31.897c7.081,9.766,10.931,21.717,10.931,34.192v0.113
		C516.587,228.688,512.738,240.639,505.657,250.404z"/>
</g>
<g>
	<path d="M614.912,218.656H592.51c-1.381,0-2.5-1.119-2.5-2.5s1.119-2.5,2.5-2.5h22.401c1.381,0,2.5,1.119,2.5,2.5
		S616.292,218.656,614.912,218.656z"/>
</g>
<g>
	<g>
		<path d="M217.941,71h-33.312c-0.983,0-1.875-0.576-2.279-1.472c-0.404-0.896-0.246-1.945,0.404-2.682
			c7.489-8.49,11.613-19.603,11.614-31.29l0-0.095c0-11.704-4.125-22.818-11.614-31.308c-0.65-0.737-0.808-1.787-0.404-2.682
			C182.754,0.576,183.646,0,184.629,0h33.312c21.989,0,42.256,13.534,51.632,34.479c0.291,0.65,0.291,1.393,0,2.043
			C260.197,57.466,239.93,71,217.941,71z M189.795,66h28.146c19.354,0,37.94-12.212,46.598-30.5C255.881,17.212,237.295,5,217.941,5
			h-28.146c6.204,8.736,9.572,19.364,9.572,30.449l0,0.102C199.368,46.636,196,57.263,189.795,66z"/>
	</g>
	<g>
		<path d="M166.142,70.999c-0.587,0-1.177-0.206-1.653-0.625c-1.035-0.914-1.134-2.493-0.221-3.529
			c7.489-8.491,11.614-19.605,11.614-31.295v-0.101c0-11.691-4.125-22.806-11.614-31.295c-0.913-1.036-0.814-2.615,0.221-3.529
			c1.036-0.912,2.617-0.814,3.529,0.221c8.295,9.404,12.864,21.693,12.864,34.603v0.101c0,12.909-4.568,25.197-12.864,34.603
			C167.524,70.713,166.834,70.999,166.142,70.999z"/>
	</g>
</g>
<g>
	<g>
		<path d="M420.143,87.229h-33.312c-0.982,0-1.874-0.576-2.278-1.472c-0.404-0.896-0.247-1.945,0.403-2.682
			c7.489-8.49,11.614-19.604,11.614-31.295v-0.102c0-11.691-4.125-22.805-11.614-31.295c-0.65-0.737-0.808-1.787-0.403-2.682
			c0.404-0.896,1.296-1.472,2.278-1.472h33.312c21.989,0,42.256,13.534,51.632,34.479c0.29,0.65,0.29,1.393,0,2.043
			C462.399,73.695,442.132,87.229,420.143,87.229z M391.997,82.229h28.146c19.354,0,37.94-12.212,46.598-30.5
			c-8.657-18.288-27.243-30.5-46.598-30.5h-28.146c6.204,8.736,9.573,19.364,9.573,30.449v0.102
			C401.57,62.865,398.201,73.493,391.997,82.229z"/>
	</g>
	<g>
		<path d="M368.343,87.228c-0.588,0-1.178-0.206-1.652-0.625c-1.036-0.914-1.135-2.493-0.222-3.529
			c7.489-8.491,11.613-19.605,11.613-31.295v-0.101c0-11.691-4.124-22.806-11.613-31.295c-0.913-1.036-0.814-2.615,0.222-3.529
			c1.032-0.913,2.614-0.814,3.528,0.221c8.295,9.404,12.863,21.692,12.863,34.603v0.101c0,12.909-4.568,25.198-12.863,34.603
			C369.725,86.942,369.036,87.228,368.343,87.228z"/>
	</g>
</g>
</svg>
