<?xml version="1.0" encoding="iso-8859-1"?>
<!-- Generator: Adobe Illustrator 23.0.3, SVG Export Plug-In . SVG Version: 6.00 Build 0)  -->
<svg version="1.1" id="Layer_4" xmlns="http://www.w3.org/2000/svg" xmlns:xlink="http://www.w3.org/1999/xlink" x="0px" y="0px"
	 width="1325.71" height="445.609" viewBox="0 0 1325.71 445.609" style="enable-background:new 0 0 1325.71 445.609;" xml:space="preserve">
<title>sys_bool_useful_circuits_4bitchain</title>
<g>
	<g style="enable-background:new    ;">
		<path style="fill:#FF3369;" d="M43.442,370.982c-1.105-0.572-1.954-1.658-2.545-3.258c-0.592-1.601-0.887-3.894-0.887-6.88
			c0-2.87,0.305-5.101,0.917-6.69c0.611-1.591,1.479-2.691,2.604-3.302c1.125-0.611,2.569-0.917,4.334-0.917
			c1.318,0,2.56,0.103,3.723,0.306c1.164,0.204,2.163,0.441,2.997,0.713v3.345c-0.582-0.135-1.406-0.251-2.473-0.349
			c-1.067-0.097-2.182-0.146-3.346-0.146s-2.056,0.18-2.676,0.538c-0.621,0.359-1.072,1.038-1.353,2.036
			c-0.281,0.999-0.422,2.497-0.422,4.495c0,1.978,0.126,3.461,0.378,4.45c0.251,0.989,0.688,1.678,1.309,2.065
			c0.62,0.389,1.542,0.582,2.763,0.582c2.366,0,4.306-0.097,5.818-0.291v3.316c-1.727,0.562-3.985,0.844-6.778,0.844
			C46.002,371.841,44.547,371.555,43.442,370.982z"/>
		<path style="fill:#FF3369;" d="M57.827,370.778c-0.728-0.707-1.091-1.672-1.091-2.894v-1.396c0-1.241,0.431-2.23,1.294-2.968
			c0.863-0.736,2.147-1.105,3.854-1.105h3.985v-1.076c0-0.523-0.087-0.936-0.262-1.236c-0.174-0.3-0.504-0.523-0.989-0.669
			c-0.485-0.146-1.203-0.218-2.153-0.218h-4.684v-2.502c1.92-0.582,4.004-0.873,6.254-0.873c2.056,0,3.593,0.389,4.611,1.164
			s1.527,2.123,1.527,4.043v10.618h-3.404l-0.698-1.658c-0.214,0.214-0.592,0.466-1.135,0.757c-0.543,0.29-1.188,0.543-1.935,0.756
			s-1.508,0.32-2.283,0.32C59.518,371.841,58.554,371.487,57.827,370.778z M64.619,368.539c0.659-0.204,1.076-0.354,1.251-0.451
			v-3.636l-2.618,0.174c-1.474,0.116-2.211,0.757-2.211,1.92v0.641c0,1.105,0.64,1.658,1.92,1.658
			C63.407,368.845,63.96,368.742,64.619,368.539z"/>
		<path style="fill:#FF3369;" d="M73.404,356.045h3.316l0.989,2.385c0.621-0.814,1.285-1.449,1.993-1.905
			c0.708-0.455,1.517-0.684,2.429-0.684c0.504,0,0.931,0.049,1.28,0.146v4.422c-1.009-0.097-1.62-0.146-1.833-0.146
			c-0.834,0-1.552,0.136-2.153,0.407s-1.173,0.698-1.716,1.28v9.716h-4.305V356.045z"/>
		<path style="fill:#FF3369;" d="M85.709,356.045h3.316l0.989,2.385c0.621-0.814,1.285-1.449,1.993-1.905
			c0.708-0.455,1.517-0.684,2.429-0.684c0.504,0,0.931,0.049,1.28,0.146v4.422c-1.009-0.097-1.62-0.146-1.833-0.146
			c-0.834,0-1.552,0.136-2.153,0.407s-1.173,0.698-1.716,1.28v9.716h-4.305V356.045z"/>
		<path style="fill:#FF3369;" d="M104.588,371.666c-2.58,0-4.228-1.396-4.945-4.188l-2.938-11.433h4.48l2.473,10.56
			c0.155,0.64,0.388,1.047,0.698,1.222s0.64,0.281,0.989,0.32l2.822-12.102h4.363l-4.654,19.636l-1.396,2.88h-3.578L104.588,371.666
			z"/>
	</g>
	<g style="enable-background:new    ;">
		<path style="fill:#FF3369;" d="M70.542,405.893c-1.105-0.572-1.954-1.658-2.545-3.258c-0.592-1.601-0.887-3.894-0.887-6.88
			c0-2.87,0.305-5.101,0.917-6.69c0.611-1.591,1.479-2.691,2.604-3.302c1.125-0.611,2.569-0.917,4.334-0.917
			c1.318,0,2.56,0.103,3.723,0.306c1.164,0.204,2.163,0.441,2.997,0.713v3.345c-0.582-0.135-1.406-0.251-2.473-0.349
			c-1.067-0.097-2.182-0.146-3.346-0.146s-2.056,0.18-2.676,0.538c-0.621,0.359-1.072,1.038-1.353,2.036
			c-0.281,0.999-0.422,2.497-0.422,4.495c0,1.978,0.126,3.461,0.378,4.45c0.251,0.989,0.688,1.678,1.309,2.065
			c0.62,0.389,1.542,0.582,2.763,0.582c2.366,0,4.306-0.097,5.818-0.291v3.316c-1.727,0.562-3.985,0.844-6.778,0.844
			C73.102,406.751,71.647,406.465,70.542,405.893z"/>
	</g>
	<g style="enable-background:new    ;">
		<path style="fill:#FF3369;" d="M89.03,409.229h-5.352l-0.373-1.885l3.607-8.214h3.025l-3.281,7.609h2.374v-1.583l0.698-2.094
			h2.141v3.677h1.164v2.024l-1.164,0.465v2.467H89.03V409.229z"/>
	</g>
	<g style="enable-background:new    ;">
		<path style="fill:#FF3369;" d="M362.112,172.823c-1.105-0.572-1.954-1.658-2.545-3.258c-0.592-1.601-0.887-3.894-0.887-6.88
			c0-2.87,0.305-5.101,0.917-6.69c0.611-1.591,1.479-2.691,2.604-3.302c1.125-0.611,2.569-0.917,4.334-0.917
			c1.318,0,2.56,0.103,3.723,0.306c1.164,0.204,2.163,0.441,2.997,0.713v3.345c-0.582-0.135-1.406-0.251-2.473-0.349
			c-1.067-0.097-2.182-0.146-3.346-0.146s-2.056,0.18-2.676,0.538c-0.621,0.359-1.072,1.038-1.353,2.036
			c-0.281,0.999-0.422,2.497-0.422,4.495c0,1.978,0.126,3.461,0.378,4.45c0.251,0.989,0.688,1.678,1.309,2.065
			c0.62,0.389,1.542,0.582,2.763,0.582c2.366,0,4.306-0.097,5.818-0.291v3.316c-1.727,0.562-3.985,0.844-6.778,0.844
			C364.672,173.681,363.217,173.395,362.112,172.823z"/>
		<path style="fill:#FF3369;" d="M376.497,172.619c-0.728-0.707-1.091-1.672-1.091-2.894v-1.396c0-1.241,0.431-2.23,1.294-2.968
			c0.863-0.736,2.147-1.105,3.854-1.105h3.985v-1.076c0-0.523-0.087-0.936-0.262-1.236c-0.174-0.3-0.504-0.523-0.989-0.669
			c-0.485-0.146-1.203-0.218-2.153-0.218h-4.684v-2.502c1.92-0.582,4.004-0.873,6.254-0.873c2.056,0,3.593,0.389,4.611,1.164
			s1.527,2.123,1.527,4.043v10.618h-3.404l-0.698-1.658c-0.214,0.214-0.592,0.466-1.135,0.757c-0.543,0.29-1.188,0.543-1.935,0.756
			s-1.508,0.32-2.283,0.32C378.188,173.681,377.224,173.328,376.497,172.619z M383.289,170.379c0.659-0.204,1.076-0.354,1.251-0.451
			v-3.636l-2.618,0.174c-1.474,0.116-2.211,0.757-2.211,1.92v0.641c0,1.105,0.64,1.658,1.92,1.658
			C382.077,170.685,382.63,170.583,383.289,170.379z"/>
		<path style="fill:#FF3369;" d="M392.074,157.885h3.316l0.989,2.385c0.621-0.814,1.285-1.449,1.993-1.905
			c0.708-0.455,1.517-0.684,2.429-0.684c0.504,0,0.931,0.049,1.28,0.146v4.422c-1.009-0.097-1.62-0.146-1.833-0.146
			c-0.834,0-1.552,0.136-2.153,0.407s-1.173,0.698-1.716,1.28v9.716h-4.305V157.885z"/>
		<path style="fill:#FF3369;" d="M404.379,157.885h3.316l0.989,2.385c0.621-0.814,1.285-1.449,1.993-1.905
			c0.708-0.455,1.517-0.684,2.429-0.684c0.504,0,0.931,0.049,1.28,0.146v4.422c-1.009-0.097-1.62-0.146-1.833-0.146
			c-0.834,0-1.552,0.136-2.153,0.407s-1.173,0.698-1.716,1.28v9.716h-4.305V157.885z"/>
		<path style="fill:#FF3369;" d="M423.258,173.506c-2.58,0-4.228-1.396-4.945-4.188l-2.938-11.433h4.48l2.473,10.56
			c0.155,0.64,0.388,1.047,0.698,1.222s0.64,0.281,0.989,0.32l2.822-12.102h4.363l-4.654,19.636l-1.396,2.88h-3.578L423.258,173.506
			z"/>
	</g>
	<g style="enable-background:new    ;">
		<path style="fill:#FF3369;" d="M389.212,207.733c-1.105-0.572-1.954-1.658-2.545-3.258c-0.592-1.601-0.887-3.894-0.887-6.88
			c0-2.87,0.305-5.101,0.917-6.69c0.611-1.591,1.479-2.691,2.604-3.302c1.125-0.611,2.569-0.917,4.334-0.917
			c1.318,0,2.56,0.103,3.723,0.306c1.164,0.204,2.163,0.441,2.997,0.713v3.345c-0.582-0.135-1.406-0.251-2.473-0.349
			c-1.067-0.097-2.182-0.146-3.346-0.146s-2.056,0.18-2.676,0.538c-0.621,0.359-1.072,1.038-1.353,2.036
			c-0.281,0.999-0.422,2.497-0.422,4.495c0,1.978,0.126,3.461,0.378,4.45c0.251,0.989,0.688,1.678,1.309,2.065
			c0.62,0.389,1.542,0.582,2.763,0.582c2.366,0,4.306-0.097,5.818-0.291v3.316c-1.727,0.562-3.985,0.844-6.778,0.844
			C391.772,208.591,390.317,208.305,389.212,207.733z"/>
	</g>
	<g style="enable-background:new    ;">
		<path style="fill:#FF3369;" d="M402.418,213.233v-2.35h3.653c0.667,0,1.148-0.078,1.442-0.232
			c0.295-0.155,0.442-0.412,0.442-0.769v-0.349c0-0.651-0.504-1.001-1.513-1.048l-2.932-0.139v-2.234l2.816-0.187
			c0.496-0.03,0.865-0.112,1.105-0.244c0.24-0.132,0.36-0.345,0.36-0.64v-0.372c0-0.357-0.136-0.617-0.407-0.78
			c-0.271-0.162-0.733-0.244-1.384-0.244h-3.374v-2.351c1.504-0.294,3.017-0.434,4.538-0.418c1.147,0.016,2.036,0.287,2.664,0.814
			c0.628,0.527,0.942,1.303,0.942,2.326v0.885c0,1.226-0.504,1.993-1.512,2.304c0.527,0.171,0.938,0.477,1.233,0.919
			c0.294,0.442,0.442,0.997,0.442,1.664v0.559c0,1.055-0.341,1.865-1.024,2.432s-1.629,0.85-2.839,0.85
			C405.52,213.629,403.969,213.497,402.418,213.233z"/>
	</g>
	<g style="enable-background:new    ;">
		<path style="fill:#FF3369;" d="M690.041,172.823c-1.105-0.572-1.954-1.658-2.545-3.258c-0.592-1.601-0.888-3.894-0.888-6.88
			c0-2.87,0.306-5.101,0.917-6.69c0.61-1.591,1.479-2.691,2.604-3.302c1.124-0.611,2.569-0.917,4.334-0.917
			c1.318,0,2.56,0.103,3.724,0.306c1.163,0.204,2.162,0.441,2.996,0.713v3.345c-0.582-0.135-1.406-0.251-2.473-0.349
			c-1.066-0.097-2.182-0.146-3.346-0.146c-1.163,0-2.056,0.18-2.676,0.538c-0.621,0.359-1.072,1.038-1.353,2.036
			c-0.281,0.999-0.422,2.497-0.422,4.495c0,1.978,0.126,3.461,0.378,4.45s0.688,1.678,1.31,2.065
			c0.62,0.389,1.541,0.582,2.763,0.582c2.366,0,4.306-0.097,5.818-0.291v3.316c-1.727,0.562-3.985,0.844-6.778,0.844
			C692.602,173.681,691.147,173.395,690.041,172.823z"/>
		<path style="fill:#FF3369;" d="M704.427,172.619c-0.728-0.707-1.091-1.672-1.091-2.894v-1.396c0-1.241,0.431-2.23,1.294-2.968
			c0.863-0.736,2.147-1.105,3.854-1.105h3.985v-1.076c0-0.523-0.087-0.936-0.262-1.236c-0.175-0.3-0.505-0.523-0.989-0.669
			s-1.202-0.218-2.152-0.218h-4.684v-2.502c1.92-0.582,4.004-0.873,6.254-0.873c2.056,0,3.593,0.389,4.611,1.164
			c1.018,0.775,1.527,2.123,1.527,4.043v10.618h-3.404l-0.697-1.658c-0.214,0.214-0.592,0.466-1.135,0.757
			c-0.543,0.29-1.188,0.543-1.935,0.756c-0.747,0.213-1.508,0.32-2.283,0.32C706.118,173.681,705.154,173.328,704.427,172.619z
			 M711.219,170.379c0.659-0.204,1.076-0.354,1.251-0.451v-3.636l-2.618,0.174c-1.474,0.116-2.211,0.757-2.211,1.92v0.641
			c0,1.105,0.641,1.658,1.92,1.658C710.007,170.685,710.56,170.583,711.219,170.379z"/>
		<path style="fill:#FF3369;" d="M720.004,157.885h3.316l0.988,2.385c0.621-0.814,1.285-1.449,1.993-1.905
			c0.708-0.455,1.517-0.684,2.429-0.684c0.504,0,0.931,0.049,1.28,0.146v4.422c-1.009-0.097-1.62-0.146-1.833-0.146
			c-0.834,0-1.552,0.136-2.152,0.407c-0.602,0.271-1.174,0.698-1.717,1.28v9.716h-4.305V157.885z"/>
		<path style="fill:#FF3369;" d="M732.309,157.885h3.316l0.988,2.385c0.621-0.814,1.285-1.449,1.993-1.905
			c0.708-0.455,1.517-0.684,2.429-0.684c0.504,0,0.931,0.049,1.28,0.146v4.422c-1.009-0.097-1.62-0.146-1.833-0.146
			c-0.834,0-1.552,0.136-2.152,0.407c-0.602,0.271-1.174,0.698-1.717,1.28v9.716h-4.305V157.885z"/>
		<path style="fill:#FF3369;" d="M751.188,173.506c-2.58,0-4.229-1.396-4.945-4.188l-2.938-11.433h4.48l2.473,10.56
			c0.154,0.64,0.388,1.047,0.697,1.222c0.311,0.175,0.641,0.281,0.989,0.32l2.822-12.102h4.363l-4.654,19.636l-1.396,2.88H749.5
			L751.188,173.506z"/>
	</g>
	<g style="enable-background:new    ;">
		<path style="fill:#FF3369;" d="M717.142,207.733c-1.105-0.572-1.954-1.658-2.546-3.258c-0.592-1.601-0.887-3.894-0.887-6.88
			c0-2.87,0.305-5.101,0.916-6.69c0.611-1.591,1.479-2.691,2.604-3.302c1.125-0.611,2.569-0.917,4.335-0.917
			c1.318,0,2.56,0.103,3.723,0.306c1.164,0.204,2.163,0.441,2.997,0.713v3.345c-0.582-0.135-1.406-0.251-2.473-0.349
			c-1.067-0.097-2.183-0.146-3.346-0.146c-1.164,0-2.056,0.18-2.677,0.538c-0.62,0.359-1.071,1.038-1.353,2.036
			c-0.281,0.999-0.422,2.497-0.422,4.495c0,1.978,0.126,3.461,0.379,4.45c0.251,0.989,0.688,1.678,1.309,2.065
			c0.62,0.389,1.542,0.582,2.764,0.582c2.366,0,4.306-0.097,5.818-0.291v3.316c-1.727,0.562-3.985,0.844-6.778,0.844
			C719.701,208.591,718.247,208.305,717.142,207.733z"/>
	</g>
	<g style="enable-background:new    ;">
		<path style="fill:#FF3369;" d="M730.441,211.326l3.886-4.072c0.899-0.9,1.35-1.715,1.35-2.443c0-0.388-0.12-0.679-0.36-0.873
			c-0.241-0.193-0.625-0.291-1.152-0.291h-3.467v-2.304c0.76-0.154,1.438-0.271,2.036-0.349c0.597-0.078,1.269-0.116,2.013-0.116
			c1.458,0,2.486,0.287,3.083,0.86c0.598,0.574,0.896,1.451,0.896,2.63c0,0.807-0.151,1.505-0.454,2.094
			c-0.303,0.59-0.85,1.312-1.641,2.164l-2.188,2.281h4.654v2.629h-8.656V211.326z"/>
	</g>
	<g style="enable-background:new    ;">
		<path style="fill:#FF3369;" d="M1016.682,172.823c-1.105-0.572-1.954-1.658-2.546-3.258c-0.592-1.601-0.887-3.894-0.887-6.88
			c0-2.87,0.305-5.101,0.916-6.69c0.611-1.591,1.479-2.691,2.604-3.302c1.125-0.611,2.569-0.917,4.335-0.917
			c1.318,0,2.56,0.103,3.723,0.306c1.164,0.204,2.163,0.441,2.997,0.713v3.345c-0.582-0.135-1.406-0.251-2.473-0.349
			c-1.067-0.097-2.183-0.146-3.346-0.146c-1.164,0-2.056,0.18-2.677,0.538c-0.62,0.359-1.071,1.038-1.353,2.036
			c-0.281,0.999-0.422,2.497-0.422,4.495c0,1.978,0.126,3.461,0.379,4.45c0.251,0.989,0.688,1.678,1.309,2.065
			c0.62,0.389,1.542,0.582,2.764,0.582c2.366,0,4.306-0.097,5.818-0.291v3.316c-1.727,0.562-3.985,0.844-6.778,0.844
			C1019.241,173.681,1017.787,173.395,1016.682,172.823z"/>
		<path style="fill:#FF3369;" d="M1031.067,172.619c-0.728-0.707-1.091-1.672-1.091-2.894v-1.396c0-1.241,0.432-2.23,1.295-2.968
			c0.862-0.736,2.147-1.105,3.854-1.105h3.985v-1.076c0-0.523-0.088-0.936-0.263-1.236c-0.174-0.3-0.504-0.523-0.988-0.669
			c-0.485-0.146-1.203-0.218-2.153-0.218h-4.684v-2.502c1.92-0.582,4.005-0.873,6.255-0.873c2.056,0,3.593,0.389,4.61,1.164
			c1.019,0.775,1.527,2.123,1.527,4.043v10.618h-3.403l-0.698-1.658c-0.214,0.214-0.592,0.466-1.135,0.757
			c-0.543,0.29-1.188,0.543-1.935,0.756c-0.746,0.213-1.508,0.32-2.283,0.32C1032.758,173.681,1031.794,173.328,1031.067,172.619z
			 M1037.86,170.379c0.659-0.204,1.076-0.354,1.251-0.451v-3.636l-2.618,0.174c-1.475,0.116-2.211,0.757-2.211,1.92v0.641
			c0,1.105,0.64,1.658,1.92,1.658C1036.647,170.685,1037.199,170.583,1037.86,170.379z"/>
		<path style="fill:#FF3369;" d="M1046.644,157.885h3.316l0.989,2.385c0.62-0.814,1.284-1.449,1.992-1.905
			c0.708-0.455,1.518-0.684,2.43-0.684c0.504,0,0.931,0.049,1.279,0.146v4.422c-1.009-0.097-1.619-0.146-1.832-0.146
			c-0.834,0-1.552,0.136-2.153,0.407c-0.601,0.271-1.173,0.698-1.716,1.28v9.716h-4.306V157.885z"/>
		<path style="fill:#FF3369;" d="M1058.948,157.885h3.316l0.989,2.385c0.62-0.814,1.284-1.449,1.992-1.905
			c0.708-0.455,1.518-0.684,2.43-0.684c0.504,0,0.931,0.049,1.279,0.146v4.422c-1.009-0.097-1.619-0.146-1.832-0.146
			c-0.834,0-1.552,0.136-2.153,0.407c-0.601,0.271-1.173,0.698-1.716,1.28v9.716h-4.306V157.885z"/>
		<path style="fill:#FF3369;" d="M1077.827,173.506c-2.579,0-4.228-1.396-4.945-4.188l-2.938-11.433h4.479l2.473,10.56
			c0.155,0.64,0.388,1.047,0.698,1.222c0.31,0.175,0.64,0.281,0.989,0.32l2.821-12.102h4.363l-4.654,19.636l-1.396,2.88h-3.578
			L1077.827,173.506z"/>
	</g>
	<g style="enable-background:new    ;">
		<path style="fill:#FF3369;" d="M1043.781,207.733c-1.105-0.572-1.954-1.658-2.545-3.258c-0.592-1.601-0.888-3.894-0.888-6.88
			c0-2.87,0.306-5.101,0.917-6.69c0.61-1.591,1.479-2.691,2.604-3.302c1.124-0.611,2.569-0.917,4.334-0.917
			c1.318,0,2.56,0.103,3.724,0.306c1.163,0.204,2.162,0.441,2.996,0.713v3.345c-0.582-0.135-1.406-0.251-2.473-0.349
			c-1.066-0.097-2.182-0.146-3.346-0.146c-1.163,0-2.056,0.18-2.676,0.538c-0.621,0.359-1.072,1.038-1.353,2.036
			c-0.281,0.999-0.422,2.497-0.422,4.495c0,1.978,0.126,3.461,0.378,4.45s0.688,1.678,1.31,2.065
			c0.62,0.389,1.541,0.582,2.763,0.582c2.366,0,4.306-0.097,5.818-0.291v3.316c-1.727,0.562-3.985,0.844-6.778,0.844
			C1046.342,208.591,1044.887,208.305,1043.781,207.733z"/>
	</g>
	<g style="enable-background:new    ;">
		<path style="fill:#FF3369;" d="M1065.714,210.907v2.629h-8.331v-2.629h2.653v-7.214l-2.467,0.279v-2.164l2.792-0.954h2.699v10.053
			H1065.714z"/>
	</g>
	<g style="enable-background:new    ;">
		<path style="fill:#FF3369;" d="M221.07,440.367c-1.261-0.135-2.327-0.31-3.2-0.523v-3.403c1.726,0.175,3.907,0.262,6.545,0.262
			c1.183,0,2.075-0.16,2.676-0.48c0.601-0.319,0.902-0.887,0.902-1.701v-0.785c0-0.641-0.189-1.13-0.567-1.47
			c-0.378-0.339-0.917-0.509-1.615-0.509h-1.833c-2.134,0-3.729-0.466-4.786-1.396s-1.585-2.453-1.585-4.567v-1.047
			c0-4.033,2.317-6.051,6.952-6.051c1.086,0,2.211,0.073,3.375,0.218c1.164,0.146,2.211,0.315,3.142,0.51v3.403
			c-2.657-0.175-4.664-0.262-6.021-0.262c-1.105,0-1.939,0.17-2.502,0.509c-0.562,0.34-0.843,0.965-0.843,1.876v0.582
			c0,0.737,0.208,1.275,0.625,1.614c0.417,0.34,1.052,0.51,1.905,0.51h2.124c1.862,0,3.282,0.509,4.262,1.527
			c0.979,1.018,1.469,2.352,1.469,4v1.222c0,1.629-0.301,2.895-0.902,3.796c-0.602,0.901-1.445,1.522-2.531,1.861
			c-1.086,0.34-2.434,0.51-4.044,0.51C223.513,440.571,222.33,440.503,221.07,440.367z"/>
	</g>
	<g style="enable-background:new    ;">
		<path style="fill:#FF3369;" d="M234.308,445.213v-2.35h3.653c0.667,0,1.148-0.078,1.442-0.232
			c0.295-0.155,0.442-0.412,0.442-0.769v-0.349c0-0.651-0.504-1.001-1.513-1.048l-2.932-0.139v-2.234l2.816-0.187
			c0.496-0.03,0.865-0.112,1.105-0.244c0.24-0.132,0.36-0.345,0.36-0.64v-0.372c0-0.357-0.136-0.617-0.407-0.78
			c-0.271-0.162-0.733-0.244-1.384-0.244h-3.374v-2.351c1.504-0.294,3.017-0.434,4.538-0.418c1.147,0.016,2.036,0.287,2.664,0.814
			c0.628,0.527,0.942,1.303,0.942,2.326v0.885c0,1.226-0.504,1.993-1.512,2.304c0.527,0.171,0.938,0.477,1.233,0.919
			c0.294,0.442,0.442,0.997,0.442,1.664v0.559c0,1.055-0.341,1.865-1.024,2.432s-1.629,0.85-2.839,0.85
			C237.41,445.609,235.859,445.477,234.308,445.213z"/>
	</g>
	<g style="enable-background:new    ;">
		<path style="fill:#FF3369;" d="M551.56,440.367c-1.261-0.135-2.327-0.31-3.2-0.523v-3.403c1.726,0.175,3.907,0.262,6.545,0.262
			c1.183,0,2.075-0.16,2.676-0.48c0.601-0.319,0.902-0.887,0.902-1.701v-0.785c0-0.641-0.189-1.13-0.567-1.47
			c-0.378-0.339-0.917-0.509-1.615-0.509h-1.833c-2.134,0-3.729-0.466-4.786-1.396s-1.585-2.453-1.585-4.567v-1.047
			c0-4.033,2.317-6.051,6.952-6.051c1.086,0,2.211,0.073,3.375,0.218c1.164,0.146,2.211,0.315,3.142,0.51v3.403
			c-2.657-0.175-4.664-0.262-6.021-0.262c-1.105,0-1.939,0.17-2.502,0.509c-0.562,0.34-0.843,0.965-0.843,1.876v0.582
			c0,0.737,0.208,1.275,0.625,1.614c0.417,0.34,1.052,0.51,1.905,0.51h2.124c1.862,0,3.282,0.509,4.262,1.527
			c0.979,1.018,1.469,2.352,1.469,4v1.222c0,1.629-0.301,2.895-0.902,3.796c-0.602,0.901-1.445,1.522-2.531,1.861
			c-1.086,0.34-2.434,0.51-4.044,0.51C554.004,440.571,552.82,440.503,551.56,440.367z"/>
	</g>
	<g style="enable-background:new    ;">
		<path style="fill:#FF3369;" d="M564.89,443.306l3.886-4.072c0.899-0.9,1.35-1.715,1.35-2.443c0-0.388-0.12-0.679-0.361-0.873
			c-0.241-0.193-0.625-0.291-1.152-0.291h-3.467v-2.304c0.76-0.154,1.439-0.271,2.036-0.349c0.597-0.078,1.269-0.116,2.013-0.116
			c1.458,0,2.486,0.287,3.083,0.86c0.597,0.574,0.896,1.451,0.896,2.63c0,0.807-0.151,1.505-0.454,2.094
			c-0.303,0.59-0.85,1.312-1.641,2.164l-2.188,2.281h4.654v2.629h-8.657V443.306z"/>
	</g>
	<g style="enable-background:new    ;">
		<path style="fill:#FF3369;" d="M878.84,440.367c-1.261-0.135-2.327-0.31-3.2-0.523v-3.403c1.726,0.175,3.907,0.262,6.545,0.262
			c1.184,0,2.075-0.16,2.677-0.48c0.601-0.319,0.901-0.887,0.901-1.701v-0.785c0-0.641-0.188-1.13-0.566-1.47
			c-0.379-0.339-0.917-0.509-1.615-0.509h-1.832c-2.134,0-3.729-0.466-4.786-1.396c-1.057-0.931-1.585-2.453-1.585-4.567v-1.047
			c0-4.033,2.317-6.051,6.952-6.051c1.086,0,2.211,0.073,3.375,0.218c1.163,0.146,2.211,0.315,3.142,0.51v3.403
			c-2.657-0.175-4.664-0.262-6.021-0.262c-1.105,0-1.939,0.17-2.502,0.509c-0.562,0.34-0.844,0.965-0.844,1.876v0.582
			c0,0.737,0.208,1.275,0.626,1.614c0.416,0.34,1.052,0.51,1.905,0.51h2.123c1.862,0,3.282,0.509,4.262,1.527
			c0.979,1.018,1.47,2.352,1.47,4v1.222c0,1.629-0.302,2.895-0.902,3.796c-0.602,0.901-1.445,1.522-2.53,1.861
			c-1.087,0.34-2.435,0.51-4.044,0.51C881.283,440.571,880.1,440.503,878.84,440.367z"/>
	</g>
	<g style="enable-background:new    ;">
		<path style="fill:#FF3369;" d="M900.804,442.887v2.629h-8.331v-2.629h2.653v-7.214l-2.467,0.279v-2.164l2.792-0.954h2.699v10.053
			H900.804z"/>
	</g>
	<g style="enable-background:new    ;">
		<path style="fill:#FF3369;" d="M1204.199,440.367c-1.261-0.135-2.327-0.31-3.199-0.523v-3.403
			c1.726,0.175,3.907,0.262,6.545,0.262c1.183,0,2.075-0.16,2.676-0.48c0.602-0.319,0.902-0.887,0.902-1.701v-0.785
			c0-0.641-0.189-1.13-0.567-1.47c-0.378-0.339-0.916-0.509-1.614-0.509h-1.833c-2.134,0-3.729-0.466-4.785-1.396
			c-1.058-0.931-1.585-2.453-1.585-4.567v-1.047c0-4.033,2.316-6.051,6.952-6.051c1.086,0,2.211,0.073,3.374,0.218
			c1.164,0.146,2.211,0.315,3.142,0.51v3.403c-2.657-0.175-4.664-0.262-6.021-0.262c-1.105,0-1.939,0.17-2.502,0.509
			c-0.562,0.34-0.843,0.965-0.843,1.876v0.582c0,0.737,0.208,1.275,0.625,1.614c0.417,0.34,1.052,0.51,1.905,0.51h2.124
			c1.861,0,3.282,0.509,4.262,1.527c0.979,1.018,1.469,2.352,1.469,4v1.222c0,1.629-0.301,2.895-0.901,3.796
			c-0.602,0.901-1.445,1.522-2.531,1.861c-1.086,0.34-2.434,0.51-4.044,0.51C1206.644,440.571,1205.46,440.503,1204.199,440.367z"/>
	</g>
	<g style="enable-background:new    ;">
		<path style="fill:#FF3369;" d="M1218.171,433.753c0.597-0.597,1.453-0.896,2.57-0.896h2.258c1.07,0,1.889,0.299,2.455,0.896
			c0.566,0.598,0.85,1.454,0.85,2.571v5.934c0,1.055-0.291,1.877-0.873,2.467s-1.4,0.885-2.455,0.885h-2.258
			c-1.132,0-1.988-0.288-2.57-0.861c-0.582-0.574-0.873-1.404-0.873-2.49v-5.934
			C1217.275,435.207,1217.573,434.351,1218.171,433.753z M1222.255,442.979c0.682,0,1.023-0.38,1.023-1.141v-5.212
			c0-0.76-0.342-1.141-1.023-1.141h-0.885c-0.311,0-0.566,0.094-0.768,0.279c-0.202,0.187-0.303,0.474-0.303,0.861v5.212
			c0,0.388,0.101,0.675,0.303,0.861c0.201,0.187,0.457,0.279,0.768,0.279H1222.255z"/>
	</g>
	<g style="enable-background:new    ;">
		<path style="fill:#FF3369;" d="M163.772,0h8.465c4.091,0,6.138,1.881,6.138,5.644c0,1.279-0.262,2.322-0.785,3.127
			c-0.524,0.805-1.261,1.333-2.211,1.585c1.047,0.253,1.924,0.814,2.632,1.688s1.062,2.056,1.062,3.549
			c0,2.134-0.538,3.656-1.614,4.567c-1.077,0.912-2.691,1.367-4.844,1.367h-8.843V0z M172.266,8.872c0.621,0,1.11-0.232,1.469-0.698
			c0.358-0.465,0.538-1.086,0.538-1.861c0-0.854-0.189-1.474-0.567-1.862c-0.378-0.388-0.877-0.581-1.498-0.581h-4.131v5.003
			H172.266z M172.499,17.657c1.648,0,2.473-0.94,2.473-2.821c0-0.814-0.229-1.459-0.684-1.935c-0.456-0.476-1.052-0.713-1.789-0.713
			h-4.422v5.469H172.499z"/>
	</g>
	<g style="enable-background:new    ;">
		<path style="fill:#FF3369;" d="M181.058,26.343v-2.35h3.653c0.667,0,1.148-0.078,1.442-0.232c0.295-0.155,0.442-0.412,0.442-0.769
			v-0.349c0-0.651-0.504-1.001-1.513-1.048l-2.932-0.139v-2.234l2.816-0.187c0.496-0.03,0.865-0.112,1.105-0.244
			c0.24-0.132,0.36-0.345,0.36-0.64V17.78c0-0.357-0.136-0.617-0.407-0.78c-0.271-0.162-0.733-0.244-1.384-0.244h-3.374v-2.351
			c1.504-0.294,3.017-0.434,4.538-0.418c1.147,0.016,2.036,0.287,2.664,0.814c0.628,0.527,0.942,1.303,0.942,2.326v0.885
			c0,1.226-0.504,1.993-1.512,2.304c0.527,0.171,0.938,0.477,1.233,0.919c0.294,0.442,0.442,0.997,0.442,1.664v0.559
			c0,1.055-0.341,1.865-1.024,2.432s-1.629,0.85-2.839,0.85C184.16,26.739,182.609,26.606,181.058,26.343z"/>
	</g>
	<g style="enable-background:new    ;">
		<path style="fill:#FF3369;" d="M283.604,0h5.439l6.749,21.526h-4.48l-1.367-4.509h-7.331l-1.338,4.509h-4.421L283.604,0z
			 M288.927,13.148l-2.647-9.454l-2.647,9.454H288.927z"/>
	</g>
	<g style="enable-background:new    ;">
		<path style="fill:#FF3369;" d="M297.198,26.343v-2.35h3.653c0.667,0,1.148-0.078,1.442-0.232c0.295-0.155,0.442-0.412,0.442-0.769
			v-0.349c0-0.651-0.504-1.001-1.513-1.048l-2.932-0.139v-2.234l2.816-0.187c0.496-0.03,0.865-0.112,1.105-0.244
			c0.24-0.132,0.36-0.345,0.36-0.64V17.78c0-0.357-0.136-0.617-0.407-0.78c-0.271-0.162-0.733-0.244-1.384-0.244h-3.374v-2.351
			c1.504-0.294,3.017-0.434,4.538-0.418c1.147,0.016,2.036,0.287,2.664,0.814c0.628,0.527,0.942,1.303,0.942,2.326v0.885
			c0,1.226-0.504,1.993-1.512,2.304c0.527,0.171,0.938,0.477,1.233,0.919c0.294,0.442,0.442,0.997,0.442,1.664v0.559
			c0,1.055-0.341,1.865-1.024,2.432s-1.629,0.85-2.839,0.85C300.3,26.739,298.748,26.606,297.198,26.343z"/>
	</g>
	<g style="enable-background:new    ;">
		<path style="fill:#FF3369;" d="M492.982,0h8.465c4.091,0,6.138,1.881,6.138,5.644c0,1.279-0.262,2.322-0.785,3.127
			c-0.524,0.805-1.261,1.333-2.211,1.585c1.047,0.253,1.924,0.814,2.632,1.688s1.062,2.056,1.062,3.549
			c0,2.134-0.538,3.656-1.614,4.567c-1.077,0.912-2.691,1.367-4.844,1.367h-8.843V0z M501.476,8.872c0.621,0,1.11-0.232,1.469-0.698
			c0.358-0.465,0.538-1.086,0.538-1.861c0-0.854-0.189-1.474-0.567-1.862c-0.378-0.388-0.877-0.581-1.498-0.581h-4.131v5.003
			H501.476z M501.709,17.657c1.648,0,2.473-0.94,2.473-2.821c0-0.814-0.229-1.459-0.684-1.935c-0.456-0.476-1.052-0.713-1.789-0.713
			h-4.422v5.469H501.709z"/>
	</g>
	<g style="enable-background:new    ;">
		<path style="fill:#FF3369;" d="M510.361,24.436l3.886-4.072c0.899-0.9,1.35-1.715,1.35-2.443c0-0.388-0.12-0.679-0.361-0.873
			c-0.241-0.193-0.625-0.291-1.152-0.291h-3.467v-2.304c0.76-0.154,1.439-0.271,2.036-0.349c0.597-0.078,1.269-0.116,2.013-0.116
			c1.458,0,2.486,0.287,3.083,0.86c0.597,0.574,0.896,1.451,0.896,2.63c0,0.807-0.151,1.505-0.454,2.094
			c-0.303,0.59-0.85,1.312-1.641,2.164l-2.188,2.281h4.654v2.629h-8.657V24.436z"/>
	</g>
	<g style="enable-background:new    ;">
		<path style="fill:#FF3369;" d="M612.814,0h5.439l6.749,21.526h-4.48l-1.367-4.509h-7.331l-1.338,4.509h-4.421L612.814,0z
			 M618.137,13.148l-2.647-9.454l-2.647,9.454H618.137z"/>
	</g>
	<g style="enable-background:new    ;">
		<path style="fill:#FF3369;" d="M626.5,24.436l3.886-4.072c0.899-0.9,1.35-1.715,1.35-2.443c0-0.388-0.12-0.679-0.361-0.873
			c-0.241-0.193-0.625-0.291-1.152-0.291h-3.467v-2.304c0.76-0.154,1.439-0.271,2.036-0.349c0.597-0.078,1.269-0.116,2.013-0.116
			c1.458,0,2.486,0.287,3.083,0.86c0.597,0.574,0.896,1.451,0.896,2.63c0,0.807-0.151,1.505-0.454,2.094
			c-0.303,0.59-0.85,1.312-1.641,2.164l-2.188,2.281h4.654v2.629H626.5V24.436z"/>
	</g>
	<g style="enable-background:new    ;">
		<path style="fill:#FF3369;" d="M818.352,0h8.466c4.091,0,6.137,1.881,6.137,5.644c0,1.279-0.262,2.322-0.785,3.127
			s-1.261,1.333-2.211,1.585c1.048,0.253,1.925,0.814,2.633,1.688s1.062,2.056,1.062,3.549c0,2.134-0.539,3.656-1.615,4.567
			c-1.076,0.912-2.69,1.367-4.844,1.367h-8.843V0z M826.846,8.872c0.62,0,1.11-0.232,1.47-0.698
			c0.357-0.465,0.537-1.086,0.537-1.861c0-0.854-0.188-1.474-0.566-1.862c-0.379-0.388-0.878-0.581-1.498-0.581h-4.131v5.003
			H826.846z M827.079,17.657c1.647,0,2.473-0.94,2.473-2.821c0-0.814-0.229-1.459-0.684-1.935c-0.457-0.476-1.053-0.713-1.789-0.713
			h-4.422v5.469H827.079z"/>
	</g>
	<g style="enable-background:new    ;">
		<path style="fill:#FF3369;" d="M844.364,24.017v2.629h-8.33v-2.629h2.652v-7.214l-2.467,0.279v-2.164l2.793-0.954h2.699v10.053
			H844.364z"/>
	</g>
	<g style="enable-background:new    ;">
		<path style="fill:#FF3369;" d="M938.174,0h5.439l6.749,21.526h-4.48l-1.367-4.509h-7.33l-1.339,4.509h-4.421L938.174,0z
			 M943.497,13.148l-2.647-9.454l-2.647,9.454H943.497z"/>
	</g>
	<g style="enable-background:new    ;">
		<path style="fill:#FF3369;" d="M960.493,24.017v2.629h-8.33v-2.629h2.652v-7.214l-2.467,0.279v-2.164l2.793-0.954h2.699v10.053
			H960.493z"/>
	</g>
	<g style="enable-background:new    ;">
		<path style="fill:#FF3369;" d="M1146.581,0h8.466c4.091,0,6.138,1.881,6.138,5.644c0,1.279-0.262,2.322-0.785,3.127
			s-1.262,1.333-2.211,1.585c1.047,0.253,1.924,0.814,2.633,1.688c0.707,0.873,1.062,2.056,1.062,3.549
			c0,2.134-0.538,3.656-1.614,4.567c-1.076,0.912-2.691,1.367-4.844,1.367h-8.844V0z M1155.075,8.872c0.621,0,1.11-0.232,1.47-0.698
			c0.358-0.465,0.538-1.086,0.538-1.861c0-0.854-0.189-1.474-0.567-1.862c-0.378-0.388-0.878-0.581-1.498-0.581h-4.131v5.003
			H1155.075z M1155.309,17.657c1.647,0,2.473-0.94,2.473-2.821c0-0.814-0.229-1.459-0.684-1.935
			c-0.456-0.476-1.052-0.713-1.789-0.713h-4.422v5.469H1155.309z"/>
	</g>
	<g style="enable-background:new    ;">
		<path style="fill:#FF3369;" d="M1164.601,14.883c0.597-0.597,1.454-0.896,2.571-0.896h2.257c1.07,0,1.889,0.299,2.455,0.896
			c0.566,0.598,0.85,1.454,0.85,2.571v5.934c0,1.055-0.291,1.877-0.873,2.467s-1.4,0.885-2.455,0.885h-2.257
			c-1.133,0-1.989-0.288-2.571-0.861c-0.582-0.574-0.873-1.404-0.873-2.49v-5.934C1163.704,16.337,1164.003,15.48,1164.601,14.883z
			 M1168.685,24.109c0.682,0,1.023-0.38,1.023-1.141v-5.212c0-0.76-0.342-1.141-1.023-1.141h-0.885
			c-0.311,0-0.566,0.094-0.768,0.279c-0.202,0.187-0.303,0.474-0.303,0.861v5.212c0,0.388,0.101,0.675,0.303,0.861
			c0.201,0.187,0.457,0.279,0.768,0.279H1168.685z"/>
	</g>
	<g style="enable-background:new    ;">
		<path style="fill:#FF3369;" d="M1266.413,0h5.439l6.749,21.526h-4.479l-1.367-4.509h-7.331l-1.338,4.509h-4.422L1266.413,0z
			 M1271.737,13.148l-2.646-9.454l-2.647,9.454H1271.737z"/>
	</g>
	<g style="enable-background:new    ;">
		<path style="fill:#FF3369;" d="M1280.74,14.883c0.598-0.597,1.454-0.896,2.571-0.896h2.258c1.07,0,1.888,0.299,2.454,0.896
			c0.566,0.598,0.85,1.454,0.85,2.571v5.934c0,1.055-0.291,1.877-0.872,2.467c-0.582,0.59-1.4,0.885-2.455,0.885h-2.258
			c-1.132,0-1.989-0.288-2.571-0.861c-0.581-0.574-0.872-1.404-0.872-2.49v-5.934C1279.845,16.337,1280.143,15.48,1280.74,14.883z
			 M1284.824,24.109c0.683,0,1.024-0.38,1.024-1.141v-5.212c0-0.76-0.342-1.141-1.024-1.141h-0.884
			c-0.311,0-0.567,0.094-0.769,0.279c-0.201,0.187-0.303,0.474-0.303,0.861v5.212c0,0.388,0.102,0.675,0.303,0.861
			s0.458,0.279,0.769,0.279H1284.824z"/>
	</g>
	<g>
		<rect x="122.16" y="114.976" style="fill:#FFB53F;" width="219.04" height="219.04"/>
		<path d="M341.2,337.017H122.16c-1.657,0-3-1.343-3-3v-219.04c0-1.657,1.343-3,3-3H341.2c1.657,0,3,1.343,3,3v219.04
			C344.2,335.674,342.857,337.017,341.2,337.017z M125.16,331.017H338.2v-213.04H125.16V331.017z"/>
	</g>
	<g>
		<g>
			<path d="M18.22,395.717c-1.657,0-3-1.343-3-3V224.496c0-1.657,1.343-3,3-3h103.94c1.657,0,3,1.343,3,3s-1.343,3-3,3H21.22
				v165.221C21.22,394.374,19.877,395.717,18.22,395.717z"/>
		</g>
		<g>
			<polygon points="36.44,390.276 0,390.276 18.22,408.486 			"/>
		</g>
	</g>
	<g>
		<g>
			<path d="M446.71,227.496h-88.17c-1.657,0-3-1.343-3-3s1.343-3,3-3h88.17c1.657,0,3,1.343,3,3S448.367,227.496,446.71,227.496z"/>
		</g>
		<g>
			<polygon points="360.98,242.726 360.98,206.276 342.77,224.496 			"/>
		</g>
	</g>
	<g>
		<g>
			<path d="M231.69,396.177c-1.657,0-3-1.343-3-3v-57.15c0-1.657,1.343-3,3-3s3,1.343,3,3v57.15
				C234.69,394.834,233.347,396.177,231.69,396.177z"/>
		</g>
		<g>
			<polygon points="249.91,390.726 213.46,390.726 231.68,408.946 			"/>
		</g>
	</g>
	<g>
		<g>
			<g>
				<path d="M174.68,99.256c-1.657,0-3-1.343-3-3v-60.05c0-1.657,1.343-3,3-3s3,1.343,3,3v60.05
					C177.68,97.913,176.337,99.256,174.68,99.256z"/>
			</g>
			<g>
				<polygon points="192.91,93.816 156.46,93.816 174.68,112.026 				"/>
			</g>
		</g>
		<g>
			<g>
				<path d="M288.69,99.256c-1.657,0-3-1.343-3-3v-60.05c0-1.657,1.343-3,3-3s3,1.343,3,3v60.05
					C291.69,97.913,290.347,99.256,288.69,99.256z"/>
			</g>
			<g>
				<polygon points="306.91,93.816 270.47,93.816 288.69,112.026 				"/>
			</g>
		</g>
	</g>
	<g style="enable-background:new    ;">
		<path d="M164.782,216.616c0-1.745,0.48-3.001,1.44-3.768c0.96-0.766,2.119-1.148,3.476-1.148c3.859,0,6.962,0.126,9.309,0.378
			v3.607h-8.116c-0.582,0-1.028,0.16-1.338,0.479c-0.31,0.32-0.465,0.732-0.465,1.236v3.694l8.523,0.233v3.403l-8.523,0.232v8.262
			h-4.305V216.616z"/>
	</g>
	<g style="enable-background:new    ;">
		<path d="M182.368,232.15c-0.786-0.834-1.178-1.997-1.178-3.491v-11.054h4.305v9.774c0,0.834,0.189,1.41,0.567,1.73
			c0.378,0.32,0.945,0.479,1.702,0.479c0.542,0,1.101-0.102,1.673-0.305c0.572-0.204,1.081-0.48,1.527-0.829v-10.851h4.334v15.621
			h-3.578l-0.756-1.6c-1.803,1.183-3.568,1.774-5.294,1.774C184.254,233.401,183.154,232.984,182.368,232.15z"/>
		<path d="M199.763,232.049c-0.805-0.824-1.207-2.109-1.207-3.854v-17.163h4.305v16.522c0,0.834,0.126,1.431,0.378,1.789
			c0.251,0.359,0.669,0.577,1.25,0.655l1.193,0.174v3.113h-2.24C201.795,233.285,200.568,232.873,199.763,232.049z"/>
		<path d="M208.868,232.049c-0.805-0.824-1.207-2.109-1.207-3.854v-17.163h4.305v16.522c0,0.834,0.126,1.431,0.378,1.789
			c0.251,0.359,0.669,0.577,1.25,0.655l1.193,0.174v3.113h-2.24C210.9,233.285,209.673,232.873,208.868,232.049z"/>
		<path d="M224.693,232.339c-0.728-0.707-1.091-1.672-1.091-2.894v-1.396c0-1.241,0.431-2.23,1.294-2.968
			c0.863-0.736,2.147-1.105,3.854-1.105h3.985v-1.076c0-0.523-0.087-0.936-0.262-1.236c-0.174-0.3-0.504-0.523-0.989-0.669
			c-0.485-0.146-1.203-0.218-2.153-0.218h-4.684v-2.502c1.92-0.582,4.004-0.873,6.254-0.873c2.056,0,3.593,0.389,4.611,1.164
			s1.527,2.123,1.527,4.043v10.618h-3.404l-0.698-1.658c-0.214,0.214-0.592,0.466-1.135,0.757c-0.543,0.29-1.188,0.543-1.935,0.756
			s-1.508,0.32-2.283,0.32C226.385,233.401,225.42,233.048,224.693,232.339z M231.486,230.1c0.659-0.204,1.076-0.354,1.251-0.451
			v-3.636l-2.618,0.174c-1.474,0.116-2.211,0.757-2.211,1.92v0.641c0,1.105,0.64,1.658,1.92,1.658
			C230.273,230.405,230.826,230.303,231.486,230.1z"/>
		<path d="M241.187,231.568c-0.921-1.222-1.382-3.219-1.382-5.992c0-1.979,0.179-3.559,0.538-4.742
			c0.358-1.183,0.964-2.055,1.818-2.618c0.854-0.562,2.026-0.844,3.52-0.844c1.28,0,2.608,0.243,3.985,0.728v-7.068h4.334v22.195
			h-3.636l-0.698-1.483c-0.543,0.465-1.203,0.858-1.978,1.178c-0.776,0.32-1.542,0.48-2.298,0.48
			C243.509,233.401,242.107,232.79,241.187,231.568z M249.666,229.066v-7.854c-0.504-0.193-0.956-0.344-1.353-0.45
			c-0.398-0.106-0.81-0.16-1.236-0.16c-0.756,0-1.343,0.131-1.76,0.393s-0.723,0.737-0.916,1.426
			c-0.194,0.688-0.291,1.673-0.291,2.952c0,1.222,0.092,2.158,0.276,2.808c0.184,0.649,0.475,1.105,0.873,1.367
			s0.945,0.393,1.644,0.393C247.834,229.939,248.755,229.648,249.666,229.066z"/>
		<path d="M258.146,231.568c-0.921-1.222-1.382-3.219-1.382-5.992c0-1.979,0.179-3.559,0.538-4.742
			c0.358-1.183,0.964-2.055,1.818-2.618c0.854-0.562,2.026-0.844,3.52-0.844c1.28,0,2.608,0.243,3.985,0.728v-7.068h4.334v22.195
			h-3.636l-0.698-1.483c-0.543,0.465-1.203,0.858-1.978,1.178c-0.776,0.32-1.542,0.48-2.298,0.48
			C260.468,233.401,259.067,232.79,258.146,231.568z M266.626,229.066v-7.854c-0.504-0.193-0.956-0.344-1.353-0.45
			c-0.398-0.106-0.81-0.16-1.236-0.16c-0.756,0-1.343,0.131-1.76,0.393s-0.723,0.737-0.916,1.426
			c-0.194,0.688-0.291,1.673-0.291,2.952c0,1.222,0.092,2.158,0.276,2.808c0.184,0.649,0.475,1.105,0.873,1.367
			s0.945,0.393,1.644,0.393C264.793,229.939,265.714,229.648,266.626,229.066z"/>
		<path d="M276.603,232.674c-1.009-0.466-1.741-1.27-2.196-2.414c-0.456-1.145-0.684-2.754-0.684-4.829
			c0-2.134,0.213-3.777,0.64-4.931c0.426-1.154,1.13-1.964,2.109-2.43c0.979-0.465,2.361-0.698,4.145-0.698
			c1.59,0,2.841,0.156,3.753,0.466c0.911,0.311,1.575,0.854,1.993,1.629c0.417,0.776,0.625,1.872,0.625,3.287
			c0,1.513-0.432,2.589-1.294,3.229c-0.863,0.64-2.119,0.96-3.767,0.96h-3.927c0.039,0.834,0.165,1.479,0.378,1.935
			c0.213,0.456,0.591,0.785,1.134,0.988c0.543,0.204,1.338,0.306,2.386,0.306h4.567v2.531c-1.028,0.214-1.959,0.378-2.792,0.494
			c-0.834,0.116-1.804,0.175-2.909,0.175C278.998,233.372,277.611,233.14,276.603,232.674z M281.491,224.383
			c0.601,0,1.032-0.12,1.294-0.363c0.262-0.242,0.393-0.654,0.393-1.236c0-0.854-0.194-1.449-0.582-1.789
			c-0.388-0.339-1.047-0.509-1.978-0.509c-0.679,0-1.207,0.111-1.585,0.334c-0.378,0.224-0.654,0.616-0.829,1.179
			c-0.174,0.562-0.262,1.357-0.262,2.385H281.491z"/>
		<path d="M289.81,217.605h3.316l0.989,2.385c0.621-0.814,1.285-1.449,1.993-1.905c0.708-0.455,1.517-0.684,2.429-0.684
			c0.504,0,0.931,0.049,1.28,0.146v4.422c-1.009-0.097-1.62-0.146-1.833-0.146c-0.834,0-1.552,0.136-2.153,0.407
			s-1.173,0.698-1.716,1.28v9.716h-4.305V217.605z"/>
	</g>
	<g>
		<rect x="449.29" y="114.976" style="fill:#FFB53F;" width="219.04" height="219.04"/>
		<path d="M668.33,337.017H449.29c-1.657,0-3-1.343-3-3v-219.04c0-1.657,1.343-3,3-3h219.04c1.657,0,3,1.343,3,3v219.04
			C671.33,335.674,669.987,337.017,668.33,337.017z M452.29,331.017h213.04v-213.04H452.29V331.017z"/>
	</g>
	<g>
		<g>
			<path d="M773.84,227.496h-88.17c-1.657,0-3-1.343-3-3s1.343-3,3-3h88.17c1.657,0,3,1.343,3,3S775.497,227.496,773.84,227.496z"/>
		</g>
		<g>
			<polygon points="688.11,242.726 688.11,206.276 669.89,224.496 			"/>
		</g>
	</g>
	<g>
		<g>
			<path d="M558.81,396.177c-1.657,0-3-1.343-3-3v-57.15c0-1.657,1.343-3,3-3s3,1.343,3,3v57.15
				C561.81,394.834,560.467,396.177,558.81,396.177z"/>
		</g>
		<g>
			<polygon points="577.04,390.726 540.59,390.726 558.81,408.946 			"/>
		</g>
	</g>
	<g>
		<g>
			<g>
				<path d="M501.81,99.256c-1.657,0-3-1.343-3-3v-60.05c0-1.657,1.343-3,3-3s3,1.343,3,3v60.05
					C504.81,97.913,503.467,99.256,501.81,99.256z"/>
			</g>
			<g>
				<polygon points="520.03,93.816 483.59,93.816 501.81,112.026 				"/>
			</g>
		</g>
		<g>
			<g>
				<path d="M615.81,99.256c-1.657,0-3-1.343-3-3v-60.05c0-1.657,1.343-3,3-3s3,1.343,3,3v60.05
					C618.81,97.913,617.467,99.256,615.81,99.256z"/>
			</g>
			<g>
				<polygon points="634.04,93.816 597.59,93.816 615.81,112.026 				"/>
			</g>
		</g>
	</g>
	<g style="enable-background:new    ;">
		<path d="M491.912,216.616c0-1.745,0.48-3.001,1.44-3.768c0.96-0.766,2.119-1.148,3.476-1.148c3.859,0,6.962,0.126,9.309,0.378
			v3.607h-8.116c-0.582,0-1.028,0.16-1.338,0.479c-0.31,0.32-0.465,0.732-0.465,1.236v3.694l8.523,0.233v3.403l-8.523,0.232v8.262
			h-4.305V216.616z"/>
	</g>
	<g style="enable-background:new    ;">
		<path d="M509.498,232.15c-0.786-0.834-1.178-1.997-1.178-3.491v-11.054h4.305v9.774c0,0.834,0.189,1.41,0.567,1.73
			c0.378,0.32,0.945,0.479,1.702,0.479c0.542,0,1.101-0.102,1.673-0.305c0.572-0.204,1.081-0.48,1.527-0.829v-10.851h4.334v15.621
			h-3.578l-0.756-1.6c-1.803,1.183-3.568,1.774-5.294,1.774C511.384,233.401,510.283,232.984,509.498,232.15z"/>
		<path d="M526.893,232.049c-0.805-0.824-1.207-2.109-1.207-3.854v-17.163h4.305v16.522c0,0.834,0.126,1.431,0.378,1.789
			c0.251,0.359,0.669,0.577,1.25,0.655l1.193,0.174v3.113h-2.24C528.925,233.285,527.698,232.873,526.893,232.049z"/>
		<path d="M535.998,232.049c-0.805-0.824-1.207-2.109-1.207-3.854v-17.163h4.305v16.522c0,0.834,0.126,1.431,0.378,1.789
			c0.251,0.359,0.669,0.577,1.25,0.655l1.193,0.174v3.113h-2.24C538.03,233.285,536.803,232.873,535.998,232.049z"/>
		<path d="M551.823,232.339c-0.728-0.707-1.091-1.672-1.091-2.894v-1.396c0-1.241,0.431-2.23,1.294-2.968
			c0.863-0.736,2.147-1.105,3.854-1.105h3.985v-1.076c0-0.523-0.087-0.936-0.262-1.236c-0.174-0.3-0.504-0.523-0.989-0.669
			c-0.485-0.146-1.203-0.218-2.153-0.218h-4.684v-2.502c1.92-0.582,4.004-0.873,6.254-0.873c2.056,0,3.593,0.389,4.611,1.164
			s1.527,2.123,1.527,4.043v10.618h-3.404l-0.698-1.658c-0.214,0.214-0.592,0.466-1.135,0.757c-0.543,0.29-1.188,0.543-1.935,0.756
			s-1.508,0.32-2.283,0.32C553.514,233.401,552.55,233.048,551.823,232.339z M558.615,230.1c0.659-0.204,1.076-0.354,1.251-0.451
			v-3.636l-2.618,0.174c-1.474,0.116-2.211,0.757-2.211,1.92v0.641c0,1.105,0.64,1.658,1.92,1.658
			C557.403,230.405,557.956,230.303,558.615,230.1z"/>
		<path d="M568.317,231.568c-0.921-1.222-1.382-3.219-1.382-5.992c0-1.979,0.179-3.559,0.538-4.742
			c0.358-1.183,0.964-2.055,1.818-2.618c0.854-0.562,2.026-0.844,3.52-0.844c1.28,0,2.608,0.243,3.985,0.728v-7.068h4.334v22.195
			h-3.636l-0.698-1.483c-0.543,0.465-1.203,0.858-1.978,1.178c-0.776,0.32-1.542,0.48-2.298,0.48
			C570.638,233.401,569.237,232.79,568.317,231.568z M576.796,229.066v-7.854c-0.504-0.193-0.956-0.344-1.353-0.45
			c-0.398-0.106-0.81-0.16-1.236-0.16c-0.756,0-1.343,0.131-1.76,0.393s-0.723,0.737-0.916,1.426
			c-0.194,0.688-0.291,1.673-0.291,2.952c0,1.222,0.092,2.158,0.276,2.808c0.184,0.649,0.475,1.105,0.873,1.367
			s0.945,0.393,1.644,0.393C574.964,229.939,575.885,229.648,576.796,229.066z"/>
		<path d="M585.276,231.568c-0.921-1.222-1.382-3.219-1.382-5.992c0-1.979,0.179-3.559,0.538-4.742
			c0.358-1.183,0.964-2.055,1.818-2.618c0.854-0.562,2.026-0.844,3.52-0.844c1.28,0,2.608,0.243,3.985,0.728v-7.068h4.334v22.195
			h-3.636l-0.698-1.483c-0.543,0.465-1.203,0.858-1.978,1.178c-0.776,0.32-1.542,0.48-2.298,0.48
			C587.598,233.401,586.197,232.79,585.276,231.568z M593.756,229.066v-7.854c-0.504-0.193-0.956-0.344-1.353-0.45
			c-0.398-0.106-0.81-0.16-1.236-0.16c-0.756,0-1.343,0.131-1.76,0.393s-0.723,0.737-0.916,1.426
			c-0.194,0.688-0.291,1.673-0.291,2.952c0,1.222,0.092,2.158,0.276,2.808c0.184,0.649,0.475,1.105,0.873,1.367
			s0.945,0.393,1.644,0.393C591.923,229.939,592.844,229.648,593.756,229.066z"/>
		<path d="M603.733,232.674c-1.009-0.466-1.741-1.27-2.196-2.414c-0.456-1.145-0.684-2.754-0.684-4.829
			c0-2.134,0.213-3.777,0.64-4.931c0.426-1.154,1.13-1.964,2.109-2.43c0.979-0.465,2.361-0.698,4.145-0.698
			c1.59,0,2.841,0.156,3.753,0.466c0.911,0.311,1.575,0.854,1.993,1.629c0.417,0.776,0.625,1.872,0.625,3.287
			c0,1.513-0.432,2.589-1.294,3.229c-0.863,0.64-2.119,0.96-3.767,0.96h-3.927c0.039,0.834,0.165,1.479,0.378,1.935
			c0.213,0.456,0.591,0.785,1.134,0.988c0.543,0.204,1.338,0.306,2.386,0.306h4.567v2.531c-1.028,0.214-1.959,0.378-2.792,0.494
			c-0.834,0.116-1.804,0.175-2.909,0.175C606.128,233.372,604.741,233.14,603.733,232.674z M608.62,224.383
			c0.601,0,1.032-0.12,1.294-0.363c0.262-0.242,0.393-0.654,0.393-1.236c0-0.854-0.194-1.449-0.582-1.789
			c-0.388-0.339-1.047-0.509-1.978-0.509c-0.679,0-1.207,0.111-1.585,0.334c-0.378,0.224-0.654,0.616-0.829,1.179
			c-0.174,0.562-0.262,1.357-0.262,2.385H608.62z"/>
		<path d="M616.94,217.605h3.316l0.989,2.385c0.621-0.814,1.285-1.449,1.993-1.905c0.708-0.455,1.517-0.684,2.429-0.684
			c0.504,0,0.931,0.049,1.28,0.146v4.422c-1.009-0.097-1.62-0.146-1.833-0.146c-0.834,0-1.552,0.136-2.153,0.407
			s-1.173,0.698-1.716,1.28v9.716h-4.305V217.605z"/>
	</g>
	<g>
		<rect x="775.48" y="114.976" style="fill:#FFB53F;" width="219.04" height="219.04"/>
		<path d="M994.52,337.017H775.48c-1.657,0-3-1.343-3-3v-219.04c0-1.657,1.343-3,3-3h219.04c1.657,0,3,1.343,3,3v219.04
			C997.52,335.674,996.177,337.017,994.52,337.017z M778.48,331.017h213.04v-213.04H778.48V331.017z"/>
	</g>
	<g>
		<g>
			<path d="M1100.031,227.496h-88.171c-1.657,0-3-1.343-3-3s1.343-3,3-3h88.171c1.657,0,3,1.343,3,3
				S1101.688,227.496,1100.031,227.496z"/>
		</g>
		<g>
			<polygon points="1014.3,242.726 1014.3,206.276 996.08,224.496 			"/>
		</g>
	</g>
	<g>
		<g>
			<path d="M885,396.177c-1.657,0-3-1.343-3-3v-57.15c0-1.657,1.343-3,3-3s3,1.343,3,3v57.15
				C888,394.834,886.657,396.177,885,396.177z"/>
		</g>
		<g>
			<polygon points="903.23,390.726 866.78,390.726 885,408.946 			"/>
		</g>
	</g>
	<g>
		<g>
			<g>
				<path d="M828,99.256c-1.657,0-3-1.343-3-3v-60.05c0-1.657,1.343-3,3-3s3,1.343,3,3v60.05C831,97.913,829.657,99.256,828,99.256z
					"/>
			</g>
			<g>
				<polygon points="846.22,93.816 809.78,93.816 828,112.026 				"/>
			</g>
		</g>
		<g>
			<g>
				<path d="M942.01,99.256c-1.657,0-3-1.343-3-3v-60.05c0-1.657,1.343-3,3-3s3,1.343,3,3v60.05
					C945.01,97.913,943.667,99.256,942.01,99.256z"/>
			</g>
			<g>
				<polygon points="960.23,93.816 923.78,93.816 942,112.026 				"/>
			</g>
		</g>
	</g>
	<g style="enable-background:new    ;">
		<path d="M818.102,216.616c0-1.745,0.479-3.001,1.44-3.768c0.959-0.766,2.118-1.148,3.476-1.148c3.858,0,6.962,0.126,9.31,0.378
			v3.607h-8.117c-0.582,0-1.027,0.16-1.338,0.479c-0.311,0.32-0.465,0.732-0.465,1.236v3.694l8.523,0.233v3.403l-8.523,0.232v8.262
			h-4.306V216.616z"/>
	</g>
	<g style="enable-background:new    ;">
		<path d="M835.689,232.15c-0.786-0.834-1.179-1.997-1.179-3.491v-11.054h4.306v9.774c0,0.834,0.188,1.41,0.567,1.73
			c0.378,0.32,0.945,0.479,1.701,0.479c0.543,0,1.101-0.102,1.673-0.305c0.572-0.204,1.081-0.48,1.527-0.829v-10.851h4.334v15.621
			h-3.578l-0.756-1.6c-1.804,1.183-3.568,1.774-5.295,1.774C837.574,233.401,836.474,232.984,835.689,232.15z"/>
		<path d="M853.083,232.049c-0.805-0.824-1.207-2.109-1.207-3.854v-17.163h4.306v16.522c0,0.834,0.126,1.431,0.378,1.789
			c0.252,0.359,0.669,0.577,1.251,0.655l1.192,0.174v3.113h-2.239C855.115,233.285,853.888,232.873,853.083,232.049z"/>
		<path d="M862.189,232.049c-0.805-0.824-1.207-2.109-1.207-3.854v-17.163h4.305v16.522c0,0.834,0.126,1.431,0.379,1.789
			c0.251,0.359,0.669,0.577,1.25,0.655l1.193,0.174v3.113h-2.24C864.22,233.285,862.993,232.873,862.189,232.049z"/>
		<path d="M878.013,232.339c-0.728-0.707-1.091-1.672-1.091-2.894v-1.396c0-1.241,0.432-2.23,1.295-2.968
			c0.862-0.736,2.147-1.105,3.854-1.105h3.985v-1.076c0-0.523-0.088-0.936-0.263-1.236c-0.174-0.3-0.504-0.523-0.988-0.669
			c-0.485-0.146-1.203-0.218-2.153-0.218h-4.684v-2.502c1.92-0.582,4.005-0.873,6.255-0.873c2.056,0,3.593,0.389,4.61,1.164
			c1.019,0.775,1.527,2.123,1.527,4.043v10.618h-3.403l-0.698-1.658c-0.214,0.214-0.592,0.466-1.135,0.757
			c-0.543,0.29-1.188,0.543-1.935,0.756c-0.746,0.213-1.508,0.32-2.283,0.32C879.704,233.401,878.74,233.048,878.013,232.339z
			 M884.806,230.1c0.659-0.204,1.076-0.354,1.251-0.451v-3.636l-2.618,0.174c-1.475,0.116-2.211,0.757-2.211,1.92v0.641
			c0,1.105,0.64,1.658,1.92,1.658C883.593,230.405,884.146,230.303,884.806,230.1z"/>
		<path d="M894.507,231.568c-0.922-1.222-1.382-3.219-1.382-5.992c0-1.979,0.179-3.559,0.538-4.742
			c0.358-1.183,0.964-2.055,1.817-2.618c0.854-0.562,2.026-0.844,3.521-0.844c1.279,0,2.607,0.243,3.985,0.728v-7.068h4.334v22.195
			h-3.636l-0.698-1.483c-0.543,0.465-1.203,0.858-1.979,1.178c-0.775,0.32-1.542,0.48-2.298,0.48
			C896.828,233.401,895.427,232.79,894.507,231.568z M902.987,229.066v-7.854c-0.505-0.193-0.956-0.344-1.353-0.45
			c-0.398-0.106-0.811-0.16-1.236-0.16c-0.757,0-1.344,0.131-1.761,0.393s-0.723,0.737-0.916,1.426
			c-0.194,0.688-0.291,1.673-0.291,2.952c0,1.222,0.092,2.158,0.276,2.808s0.476,1.105,0.873,1.367s0.945,0.393,1.644,0.393
			C901.154,229.939,902.074,229.648,902.987,229.066z"/>
		<path d="M911.466,231.568c-0.921-1.222-1.382-3.219-1.382-5.992c0-1.979,0.179-3.559,0.538-4.742
			c0.358-1.183,0.965-2.055,1.818-2.618c0.854-0.562,2.026-0.844,3.52-0.844c1.28,0,2.608,0.243,3.985,0.728v-7.068h4.335v22.195
			h-3.637l-0.698-1.483c-0.543,0.465-1.202,0.858-1.978,1.178c-0.776,0.32-1.542,0.48-2.299,0.48
			C913.788,233.401,912.387,232.79,911.466,231.568z M919.946,229.066v-7.854c-0.504-0.193-0.955-0.344-1.353-0.45
			s-0.81-0.16-1.236-0.16c-0.756,0-1.343,0.131-1.76,0.393s-0.723,0.737-0.916,1.426c-0.194,0.688-0.291,1.673-0.291,2.952
			c0,1.222,0.092,2.158,0.276,2.808c0.184,0.649,0.475,1.105,0.872,1.367s0.945,0.393,1.644,0.393
			C918.114,229.939,919.034,229.648,919.946,229.066z"/>
		<path d="M929.923,232.674c-1.009-0.466-1.741-1.27-2.196-2.414c-0.456-1.145-0.684-2.754-0.684-4.829
			c0-2.134,0.213-3.777,0.64-4.931c0.427-1.154,1.13-1.964,2.109-2.43c0.979-0.465,2.361-0.698,4.146-0.698
			c1.59,0,2.841,0.156,3.753,0.466c0.911,0.311,1.575,0.854,1.992,1.629c0.417,0.776,0.625,1.872,0.625,3.287
			c0,1.513-0.432,2.589-1.294,3.229c-0.863,0.64-2.119,0.96-3.768,0.96h-3.927c0.038,0.834,0.164,1.479,0.378,1.935
			c0.213,0.456,0.592,0.785,1.135,0.988c0.543,0.204,1.338,0.306,2.386,0.306h4.566v2.531c-1.028,0.214-1.959,0.378-2.792,0.494
			c-0.834,0.116-1.804,0.175-2.909,0.175C932.318,233.372,930.931,233.14,929.923,232.674z M934.811,224.383
			c0.601,0,1.032-0.12,1.294-0.363c0.262-0.242,0.393-0.654,0.393-1.236c0-0.854-0.194-1.449-0.582-1.789
			c-0.388-0.339-1.047-0.509-1.978-0.509c-0.68,0-1.207,0.111-1.586,0.334c-0.378,0.224-0.654,0.616-0.829,1.179
			c-0.174,0.562-0.262,1.357-0.262,2.385H934.811z"/>
		<path d="M943.13,217.605h3.316l0.988,2.385c0.621-0.814,1.285-1.449,1.993-1.905c0.708-0.455,1.517-0.684,2.429-0.684
			c0.504,0,0.931,0.049,1.28,0.146v4.422c-1.009-0.097-1.62-0.146-1.833-0.146c-0.834,0-1.552,0.136-2.152,0.407
			c-0.602,0.271-1.174,0.698-1.717,1.28v9.716h-4.305V217.605z"/>
	</g>
	<g>
		<rect x="1103.67" y="114.976" style="fill:#FFB53F;" width="219.04" height="219.04"/>
		<path d="M1322.71,337.017h-219.04c-1.657,0-3-1.343-3-3v-219.04c0-1.657,1.343-3,3-3h219.04c1.657,0,3,1.343,3,3v219.04
			C1325.71,335.674,1324.367,337.017,1322.71,337.017z M1106.67,331.017h213.04v-213.04h-213.04V331.017z"/>
	</g>
	<g>
		<g>
			<path d="M1213.2,396.177c-1.657,0-3-1.343-3-3v-57.15c0-1.657,1.343-3,3-3s3,1.343,3,3v57.15
				C1216.2,394.834,1214.858,396.177,1213.2,396.177z"/>
		</g>
		<g>
			<polygon points="1231.42,390.726 1194.97,390.726 1213.19,408.946 			"/>
		</g>
	</g>
	<g>
		<g>
			<g>
				<path d="M1156.19,99.256c-1.657,0-3-1.343-3-3v-60.05c0-1.657,1.343-3,3-3s3,1.343,3,3v60.05
					C1159.19,97.913,1157.847,99.256,1156.19,99.256z"/>
			</g>
			<g>
				<polygon points="1174.42,93.816 1137.97,93.816 1156.19,112.026 				"/>
			</g>
		</g>
		<g>
			<g>
				<path d="M1270.2,99.256c-1.657,0-3-1.343-3-3v-60.05c0-1.657,1.343-3,3-3s3,1.343,3,3v60.05
					C1273.2,97.913,1271.858,99.256,1270.2,99.256z"/>
			</g>
			<g>
				<polygon points="1288.42,93.816 1251.98,93.816 1270.2,112.026 				"/>
			</g>
		</g>
	</g>
	<g style="enable-background:new    ;">
		<path d="M1143.892,211.7h4.305v8.96h8.117v-8.96h4.334v21.526h-4.334v-8.698h-8.117v8.698h-4.305V211.7z"/>
		<path d="M1164.56,232.339c-0.728-0.707-1.091-1.672-1.091-2.894v-1.396c0-1.241,0.431-2.23,1.294-2.968
			c0.863-0.736,2.148-1.105,3.855-1.105h3.984v-1.076c0-0.523-0.087-0.936-0.262-1.236c-0.174-0.3-0.504-0.523-0.988-0.669
			c-0.485-0.146-1.203-0.218-2.153-0.218h-4.684v-2.502c1.92-0.582,4.005-0.873,6.255-0.873c2.055,0,3.592,0.389,4.61,1.164
			s1.527,2.123,1.527,4.043v10.618h-3.403l-0.698-1.658c-0.214,0.214-0.592,0.466-1.135,0.757c-0.543,0.29-1.188,0.543-1.935,0.756
			s-1.508,0.32-2.283,0.32C1166.251,233.401,1165.286,233.048,1164.56,232.339z M1171.353,230.1c0.658-0.204,1.076-0.354,1.25-0.451
			v-3.636l-2.617,0.174c-1.475,0.116-2.211,0.757-2.211,1.92v0.641c0,1.105,0.64,1.658,1.92,1.658
			C1170.14,230.405,1170.693,230.303,1171.353,230.1z"/>
		<path d="M1181.345,232.049c-0.805-0.824-1.207-2.109-1.207-3.854v-17.163h4.305v16.522c0,0.834,0.126,1.431,0.379,1.789
			c0.251,0.359,0.668,0.577,1.25,0.655l1.193,0.174v3.113h-2.24C1183.376,233.285,1182.15,232.873,1181.345,232.049z"/>
		<path d="M1190.318,221.067h-2.211v-2.764l2.211-0.698v-1.048c0-1.997,0.408-3.447,1.223-4.349s2.143-1.353,3.984-1.353
			c1.105,0,2.183,0.146,3.229,0.437v3.083h-2.386c-0.659,0-1.109,0.15-1.352,0.451c-0.243,0.301-0.364,0.8-0.364,1.498v1.28h3.956
			v3.462h-3.956v12.159h-4.335V221.067z"/>
		<path d="M1208.601,232.339c-0.727-0.707-1.09-1.672-1.09-2.894v-1.396c0-1.241,0.431-2.23,1.294-2.968
			c0.862-0.736,2.147-1.105,3.854-1.105h3.985v-1.076c0-0.523-0.087-0.936-0.263-1.236c-0.174-0.3-0.504-0.523-0.988-0.669
			s-1.203-0.218-2.152-0.218h-4.684v-2.502c1.92-0.582,4.004-0.873,6.254-0.873c2.056,0,3.593,0.389,4.611,1.164
			c1.018,0.775,1.527,2.123,1.527,4.043v10.618h-3.404l-0.697-1.658c-0.215,0.214-0.592,0.466-1.135,0.757
			c-0.543,0.29-1.188,0.543-1.936,0.756c-0.746,0.213-1.508,0.32-2.283,0.32C1210.292,233.401,1209.328,233.048,1208.601,232.339z
			 M1215.394,230.1c0.659-0.204,1.076-0.354,1.251-0.451v-3.636l-2.618,0.174c-1.475,0.116-2.211,0.757-2.211,1.92v0.641
			c0,1.105,0.641,1.658,1.92,1.658C1214.181,230.405,1214.734,230.303,1215.394,230.1z"/>
		<path d="M1225.095,231.568c-0.922-1.222-1.382-3.219-1.382-5.992c0-1.979,0.179-3.559,0.538-4.742
			c0.358-1.183,0.965-2.055,1.818-2.618c0.854-0.562,2.025-0.844,3.52-0.844c1.279,0,2.607,0.243,3.985,0.728v-7.068h4.335v22.195
			h-3.637l-0.698-1.483c-0.543,0.465-1.202,0.858-1.978,1.178c-0.776,0.32-1.543,0.48-2.299,0.48
			C1227.417,233.401,1226.015,232.79,1225.095,231.568z M1233.574,229.066v-7.854c-0.505-0.193-0.956-0.344-1.353-0.45
			c-0.398-0.106-0.811-0.16-1.236-0.16c-0.756,0-1.344,0.131-1.76,0.393c-0.418,0.262-0.723,0.737-0.916,1.426
			c-0.195,0.688-0.291,1.673-0.291,2.952c0,1.222,0.092,2.158,0.275,2.808c0.185,0.649,0.476,1.105,0.873,1.367
			s0.945,0.393,1.644,0.393C1231.741,229.939,1232.663,229.648,1233.574,229.066z"/>
		<path d="M1242.054,231.568c-0.922-1.222-1.382-3.219-1.382-5.992c0-1.979,0.179-3.559,0.538-4.742
			c0.358-1.183,0.965-2.055,1.818-2.618c0.854-0.562,2.025-0.844,3.52-0.844c1.279,0,2.607,0.243,3.985,0.728v-7.068h4.335v22.195
			h-3.637l-0.698-1.483c-0.543,0.465-1.202,0.858-1.978,1.178c-0.776,0.32-1.543,0.48-2.299,0.48
			C1244.376,233.401,1242.974,232.79,1242.054,231.568z M1250.533,229.066v-7.854c-0.505-0.193-0.956-0.344-1.353-0.45
			c-0.398-0.106-0.811-0.16-1.236-0.16c-0.756,0-1.344,0.131-1.76,0.393c-0.418,0.262-0.723,0.737-0.916,1.426
			c-0.195,0.688-0.291,1.673-0.291,2.952c0,1.222,0.092,2.158,0.275,2.808c0.185,0.649,0.476,1.105,0.873,1.367
			s0.945,0.393,1.644,0.393C1248.7,229.939,1249.622,229.648,1250.533,229.066z"/>
		<path d="M1260.511,232.674c-1.008-0.466-1.74-1.27-2.195-2.414c-0.457-1.145-0.684-2.754-0.684-4.829
			c0-2.134,0.213-3.777,0.639-4.931c0.427-1.154,1.131-1.964,2.109-2.43c0.979-0.465,2.361-0.698,4.146-0.698
			c1.59,0,2.841,0.156,3.753,0.466c0.911,0.311,1.575,0.854,1.992,1.629c0.417,0.776,0.625,1.872,0.625,3.287
			c0,1.513-0.432,2.589-1.294,3.229c-0.862,0.64-2.118,0.96-3.767,0.96h-3.928c0.039,0.834,0.164,1.479,0.379,1.935
			c0.213,0.456,0.591,0.785,1.134,0.988c0.543,0.204,1.339,0.306,2.386,0.306h4.566v2.531c-1.027,0.214-1.959,0.378-2.792,0.494
			c-0.834,0.116-1.804,0.175-2.909,0.175C1262.906,233.372,1261.519,233.14,1260.511,232.674z M1265.399,224.383
			c0.601,0,1.032-0.12,1.294-0.363c0.262-0.242,0.393-0.654,0.393-1.236c0-0.854-0.193-1.449-0.582-1.789
			c-0.388-0.339-1.047-0.509-1.978-0.509c-0.679,0-1.207,0.111-1.585,0.334c-0.379,0.224-0.654,0.616-0.83,1.179
			c-0.174,0.562-0.262,1.357-0.262,2.385H1265.399z"/>
		<path d="M1273.718,217.605h3.316l0.988,2.385c0.621-0.814,1.285-1.449,1.993-1.905c0.708-0.455,1.517-0.684,2.429-0.684
			c0.504,0,0.932,0.049,1.28,0.146v4.422c-1.009-0.097-1.62-0.146-1.833-0.146c-0.834,0-1.551,0.136-2.152,0.407
			s-1.174,0.698-1.717,1.28v9.716h-4.305V217.605z"/>
	</g>
</g>
</svg>
